<?xml version="1.0" encoding="UTF-8"?> <svg viewBox="0 0 626 626" xmlns="http://www.w3.org/2000/svg"><path d="m0 0v626h626v-626h-626z" fill="#fff0"/><path d="m101 80v1h102l-31-1h-71m-2 1 1 1-1-1z" fill="#55639b"/><path d="m100.11 81.742c-7.1655 3.0816-4.109 19.905-4.109 26.258v66c0 6.581-2.41 19.277 1.7423 24.772 4.4797 5.928 18.682 3.228 25.258 3.228h57c6.845 0 17.58 2.019 23.891-0.858 7.171-3.268 4.109-19.667 4.109-26.142v-67c0-6.207 2.499-19.581-1.742-24.566-4.358-5.123-19.133-2.4337-25.258-2.4337h-56c-7.129 0-18.277-2.1024-24.891 0.7423z" fill="#26225a"/><path d="m204 81 1 1-1-1z" fill="#55639b"/><path d="m97 82 1 1-1-1m109 0 1 1-1-1m-105 1-2 2c2.196 9.2224 1 19.558 1 29v53c0 6.786-3.237 25.012 1.028 30.397 2.119 2.676 7.992 1.603 10.972 1.603h31 44c4.379 0 13.012 1.631 16.471-1.603 4.07-3.805 1.529-17.138 1.529-22.397v-66c0-5.199 2.669-21.626-2.148-24.817-5.043-3.3412-21.591-0.1123-27.852-0.1867-23.964-0.285-50.267 3.095-74-0.9962z" fill="#eb9f3c"/><path d="m102 83 1 1-1-1m2 0v1h45c-11.701-4.9101-32.258-1-45-1m46 0v1h14l-14-1m18 0v1h32l-32-1m33 0 1 1-1-1z" fill="#e8eef4"/><path d="m203 83 1 1-1-1m-107 1 1 1-1-1m3 0 1 1-1-1z" fill="#55639b"/><path d="m100 84v2l2-2h-2m3 0 1 1-1-1m97 0 1 1-1-1m2 0 1 1-1-1z" fill="#e8eef4"/><path d="m204 84 1 1-1-1m3 0 1 1-1-1z" fill="#55639b"/><path d="m208 85 1 1-1-1m80 0 1 1-1-1z" fill="#eb9f3c"/><path d="m289 85v1h47c-12.176-5.1096-33.735-1-47-1z" fill="#55639b"/><path d="m336 85 1 3h1l-2-3z" fill="#eb9f3c"/><path d="m98 86 1 1-1-1z" fill="#55639b"/><path d="m99 86v111h1v-77l-1-34z" fill="#e8eef4"/><path d="m205 86v57h1v-39l-1-18z" fill="#b25637"/><path d="m208 86v111h1v-77l-1-34z" fill="#55639b"/><path d="m288 86v63l36 1 11.972-1.603 1.028-17.397v-45h-49z" fill="#26225a"/><path d="m95 87 1 1-1-1m3 0v109h1v-76l-1-33m112 0c1.603 37.334 4.696 77.841 0 115l-5 1 2 1v1l-4-1v1c12.4 2.291 9-17.492 9-25v-65c0-8.239 2.342-20.752-2-28z" fill="#eb9f3c"/><path d="m105 88 1 1-1-1m62 0 1 1-1-1m31 0 1 1-1-1z" fill="#b25637"/><path d="m290 88v59h2v-28h1v25h1l7-11h1l5 7-8 3h1c5.204-3.943 24.796-3.943 30 0h1c-3.477-5.364-15.181-3-21-3v-1h10v-1h-3v-1l7-3c-2.216-5.341-6.082-12.723-10.669-16.397-4.967-3.978-17.709-3.545-9.331-14.603l-1-3h4l-1-3h1c3.712 6.018 8.869 4.127 15 4l1 6h1v-3h1l-3 15 3 2 9-4-9-18 10-10v-1h-18l1 4-2-2h-1l2 4-3-1-4 5-6-8h-1l1 3-9-3c4.747 10.155 4.582 12.437 2 23l-3-1 1 2-2-2h-1v6h-1l-1-30z" fill="#55639b"/><path d="m291 88v28h1v-26l4 3-1-4-4-1z" fill="#e8eef4"/><path d="m293 88v1l9-1h-9z" fill="#eb9f3c"/><path d="m295 88 1 1-1-1m4.667 0.3333 0.666 0.3334-0.666-0.3334z" fill="#55639b"/><path d="m302 88v2l12-1-12-1z" fill="#e8eef4"/><path d="m311 88 1 1-1-1m3 0-10 2 6 8 4-5 3 1-3-6z" fill="#eb9f3c"/><path d="m315.33 88.667 0.334 0.6666-0.334-0.6666z" fill="#e8eef4"/><path d="m316 88 2 4-2-4z" fill="#eb9f3c"/><path d="m337 88c0 19.531 3.525 42.995-1 62 3.531-3.086 2-10.589 2-15 0-13.253 4.107-34.83-1-47z" fill="#55639b"/><path d="m482 88 1 1-1-1z" fill="#eb9f3c"/><path d="m483 88v1h6l-6-1z" fill="#55639b"/><path d="m489 88 1 1-1-1z" fill="#eb9f3c"/><path d="m104 89v49h45v-49h-45m51 0v49h45v-49h-45z" fill="#26225a"/><path d="m339 89c-5.207 18.233-1 43.025-1 62-13.872-4.1-32.529-1-47-1 2.74 4.227 8.428 3 13 3h36v-44l-1-20z" fill="#eb9f3c"/><path d="m478 89 1 1-1-1z" fill="#55639b"/><path d="m474 137v1h-16c-1.769-9.926-8.529-23.482-14.074-31.941-3.665-5.591-9.242-3.864-10.926 1.941l-5 1c-0.555-2.325-0.721-4.672-1.214-6.998-1.229-5.8025-7.963-9.1683-12.183-3.7736-1.83 2.3376-1.289 5.9916-3.921 7.7436-2.348 1.564-6.006 1.026-8.682 1.028v31h-12c0 2.891-0.707 7.019 0.603 9.682 1.611 3.272 6.255 1.702 8.759 3.921 4.747 4.209 4.272 17.257 12.61 16.23 8.324-1.026 6.05-14.306 13.136-17.23 4.662-1.923 11.916-0.603 16.892-0.603 12.184 0 24.861-1.016 36.995 0.059 9.703 0.859 7.773 19.97 17.904 17.604 5.322-1.243 6.469-9.561 8.9-13.604 2.687-4.468 6.222-2.401 9.598-5.087 2.673-2.127 1.603-7.963 1.603-10.972h-20c5.216-4.027 10.06-7.567 12.441-14 1.612-4.356 1.947-9.406 1.374-14-4.906-39.311-68.733-16.112-46.845 18 2.529 3.941 5.922 6.869 10.03 9z" fill="#26225a"/><path d="m492 89 1 1-1-1z" fill="#55639b"/><path d="m493 89 1 1-1-1m-398 1 1 1-1-1m197 0c0.705 6.6055-3.052 19.724 3 24l-1-2 3 1c2.142-5.623 6.579-12.844 0-17l1-2-6-4m2 0 1 1-1-1z" fill="#eb9f3c"/><path d="m296 90v1l8 2-8-3m23 0v1h8l-8-1m10 0 1 1-1-1z" fill="#26225a"/><path d="m475 90 1 1-1-1m5 0 1 1-1-1z" fill="#55639b"/><path d="m481 90v1h2v1h-8l1 2-3-1-8 8-2 4 1 3-2-1c1.216 6.821-1.551 12.379 2.563 18.999 2.573 4.14 6.076 7.439 10.437 9.623 15.733 7.879 34.921-4.026 34.921-21.622 0-10.674-8.416-23.1-19.921-22l1-2h-10z" fill="#b25637"/><path d="m484 90v1h4l-4-1z" fill="#eb9f3c"/><path d="m495 90 1 1-1-1z" fill="#55639b"/><path d="m496 90 1 1-1-1z" fill="#eb9f3c"/><path d="m107 91v1c5.503 0 13.981-1.5891 18.96 1.0278 13.582 7.1382 20.04 28.261 20.04 41.972-18.19 0-29.779 2.049-38-17h-1v18h40v-45h-40m90 45v-44c-8.582 0-17.415 0.5985-25.961-0.2354-3.43-0.3347-9.442-2.1074-12.436 0.2632-2.352 1.8634-1.602 6.3554-1.603 8.9722-4e-3 8.338 0.059 16.669 3e-3 25.004-0.019 2.87-0.833 7.844 2.315 9.393 8.802 4.331 27.848 0.603 37.682 0.603z" fill="#55639b"/><path d="m200 91v48h1c0-13.526 4.209-35.586-1-48z" fill="#e8eef4"/><path d="m295 91 1 1-1-1z" fill="#eb9f3c"/><path d="m473 91 1 1-1-1m4 0 1 1-1-1z" fill="#55639b"/><path d="m478 91v1h5l-5-1m12 0v1h3l-3-1z" fill="#eb9f3c"/><path d="m497 91 1 1-1-1z" fill="#55639b"/><path d="m498 91 1 1-1-1z" fill="#eb9f3c"/><path d="m107 92c0 12.63-2.923 36.066 12.184 42.397 7.037 2.948 19.216 0.603 26.816 0.603 0-13.836-5.382-34.514-19.093-41.972-5.088-2.7672-14.239-1.0278-19.907-1.0278m34 0 4 9h1v-9h-5m17 0c0 13.675-3.59 40.351 18 36v7h8v-14l3 1c-6.149-11.045-15.139-29.951-29-30z" fill="#e8eef4"/><path d="m297 92 2 2-2-2m23 0 1 1-1-1z" fill="#26225a"/><path d="m471 92 1 1-1-1m5.667 0.3333 0.666 0.3334-0.666-0.3334z" fill="#eb9f3c"/><path d="m499 92 1 1-1-1m-29 1 1 1-1-1z" fill="#55639b"/><path d="m474.67 93.333 0.666 0.3334-0.666-0.3334m26.333-0.3333 1 1-1-1z" fill="#eb9f3c"/><path d="m301 94 1 1-1-1m3 0 1 3h1l-2-3m18 0 1 1-1-1z" fill="#26225a"/><path d="m470 97 4-2-4 2z" fill="#eb9f3c"/><path d="m502 94 1 1-1-1z" fill="#55639b"/><path d="m95 95v101h1v-70l-1-31z" fill="#eb9f3c"/><path d="m297 95 1 1-1-1z" fill="#e8eef4"/><path d="m299 95 3 3-3-3z" fill="#26225a"/><path d="m314 95 1 1-1-1z" fill="#eb9f3c"/><path d="m338 95 1 1-1-1z" fill="#e8eef4"/><path d="m416 95 1 1-1-1z" fill="#eb9f3c"/><path d="m417 95 1 1-1-1m5 0 1 1-1-1z" fill="#55639b"/><path d="m467 95 1 1-1-1z" fill="#eb9f3c"/><path d="m470 95 1 1-1-1z" fill="#55639b"/><path d="m482 95.468c-25.038 4.7736-16.832 41.677 8 37.203 23.723-4.275 15.84-41.748-8-37.203z" fill="#26225a"/><path d="m503 95 1 1-1-1z" fill="#55639b"/><path d="m323 96 2 2-2-2z" fill="#26225a"/><path d="m415 96 1 1-1-1m9 0 1 1-1-1m80 0 1 1-1-1z" fill="#55639b"/><path d="m306 97 1 3h-4l8 2v-1l-5-4z" fill="#26225a"/><path d="m414 97 1 1-1-1m5 0 1 1-1-1m6 0 1 1-1-1z" fill="#55639b"/><path d="m469 97-1 2 1-2z" fill="#eb9f3c"/><path d="m480 97v1l5 1-5-2m7 0v1h4l-4-1m18 0 1 1-1-1m-92 1 1 1-1-1z" fill="#55639b"/><path d="m417 98c-0.253 7.785-2.606 12.439 7 13 1.094-6.67 0.567-11.93-7-13z" fill="#b25637"/><path d="m418 98 1 1-1-1m8 0 1 1-1-1z" fill="#eb9f3c"/><path d="m465 98 1 1-1-1m13 0 1 1-1-1z" fill="#55639b"/><path d="m479 98v1h2v1l-4-1-6 6-2 4v9l1 4c2.758-2.411 1.967-5.722 1-9l21-14v-1h-13z" fill="#eb9f3c"/><path d="m482 98 2 2v-2h-2m6 0v1h3l-3-1z" fill="#e8eef4"/><path d="m492 98v1l3 1-3-2z" fill="#55639b"/><path d="m506 98 1 1-1-1z" fill="#eb9f3c"/><path d="m302 99 1 1-1-1z" fill="#26225a"/><path d="m416 99c-0.919 3.858-2.271 9.141 1 12l1-12h-2z" fill="#eb9f3c"/><path d="m426 99 1 1-1-1m38 0 1 1-1-1m2 0 1 1-1-1z" fill="#55639b"/><path d="m467 99 1 1-1-1z" fill="#eb9f3c"/><path d="m476 99-5 6 5-6z" fill="#55639b"/><path d="m478 99v1h3l-3-1m-7 14c0.881 3.744-0.105 8.635 1.832 11.957 2.357 4.042 6.748 5.657 11.168 5.745 3.901 0.078 7.528 0.34 10.96-1.85 16.258-10.377 3.445-38.5-14.956-26.149-3.994 2.68-5.878 6.883-9.004 10.297z" fill="#e8eef4"/><path d="m493 99 1 1-1-1m-81 1 1 1-1-1z" fill="#eb9f3c"/><path d="m415 100 1 1-1-1z" fill="#55639b"/><path d="m466.33 100.67 0.334 0.666-0.334-0.666z" fill="#eb9f3c"/><path d="m476.67 100.33 0.666 0.334-0.666-0.334m4.333-0.333 1 1-1-1z" fill="#e8eef4"/><path d="m495 100 1 1-1-1z" fill="#eb9f3c"/><path d="m496 100 1 1-1-1m11 0 1 1-1-1z" fill="#55639b"/><path d="m315 101v1h7l-7-1z" fill="#26225a"/><path d="m412 101v5h1l-1-5z" fill="#55639b"/><path d="m437 101 1 1-1-1z" fill="#eb9f3c"/><path d="m438 101 1 1-1-1z" fill="#55639b"/><path d="m439 101 1 1-1-1z" fill="#eb9f3c"/><path d="m463 101 1 1-1-1z" fill="#55639b"/><path d="m475 101 1 1-1-1m4 0-5 5 6-4-1-1z" fill="#e8eef4"/><path d="m497 101 1 1-1-1z" fill="#55639b"/><path d="m508 101 1 1-1-1z" fill="#eb9f3c"/><path d="m304 102v1h4l-4-1z" fill="#b25637"/><path d="m304 103 5 8 1-7 7 2c-1.591 3.978-3.509 6.652-8 7 3.974 4.043 8.796 2.107 14 2v-12h-1l-8 1v-1h6-16z" fill="#eb9f3c"/><path d="m320 102 1 1-1-1z" fill="#b25637"/><path d="m323 102 1 1-1-1z" fill="#26225a"/><path d="m427 102v5h1l-1-5z" fill="#eb9f3c"/><path d="m435 102 1 1-1-1m6 0 1 1-1-1z" fill="#55639b"/><path d="m462 102 1 1-1-1z" fill="#eb9f3c"/><path d="m464 102 1 1-1-1z" fill="#55639b"/><path d="m465 102 1 1-1-1z" fill="#eb9f3c"/><path d="m474 102 1 1-1-1z" fill="#e8eef4"/><path d="m498 102 1 1-1-1m10 0 1 1-1-1z" fill="#55639b"/><path d="m150 103 1 1-1-1z" fill="#e8eef4"/><path d="m302 103v3h1l-1-3z" fill="#eb9f3c"/><path d="m303 103c-0.57 3.015-1.839 6.901-0.5 9.889 1.048 2.338 3.516 2.571 3.5 0.111l5 3-8-13m11 0v1l8 1-8-2z" fill="#e8eef4"/><path d="m434 103 1 1-1-1m8 0 1 1-1-1m20 0 1 1-1-1z" fill="#55639b"/><path d="m464.33 103.67 0.334 0.666-0.334-0.666z" fill="#eb9f3c"/><path d="m473 103-1 2h2l-1-2z" fill="#e8eef4"/><path d="m499 103 1 1-1-1z" fill="#55639b"/><path d="m310 104v10h1l-1-10z" fill="#b25637"/><path d="m433 104 1 1-1-1m4 0c-3.812 7.911 7.813 33.695 17 34-1.346-4.049-3.44-12.399-8-13 0.597-3.891-0.591-10.417-5-11 0.383-2.616 0.713-4-2-4l1-3-3-3z" fill="#55639b"/><path d="m437 105 3 2-1 3c2.782 0 2.318 1.535 2 4 3.926 0 5.266 7.627 5 11l8 13c1.76-6.415-10.316-32.67-17-33z" fill="#e8eef4"/><path d="m439 104 1 1-1-1m4 0 1 1-1-1m20 0 1 1-1-1m22 0 1 1-1-1m24 0 1 1-1-1z" fill="#55639b"/><path d="m310 105v8l7-3-7-5z" fill="#26225a"/><path d="m314 105 1 1-1-1m4 0 2 2-2-2z" fill="#e8eef4"/><path d="m461 105 1 1-1-1m9 0-1 4h1v-4z" fill="#55639b"/><path d="m485 105c1e-3 8.463 1.844 12.955 9 18l-9-18z" fill="#26225a"/><path d="m500 105 1 1-1-1z" fill="#eb9f3c"/><path d="m313 106 1 1-1-1z" fill="#b25637"/><path d="m315.67 106.33 0.666 0.334-0.666-0.334z" fill="#e8eef4"/><path d="m402 106v1h10l-10-1m39 0 1 1-1-1z" fill="#55639b"/><path d="m444 106 1 1-1-1m19.333 0.667 0.334 0.666-0.334-0.666z" fill="#eb9f3c"/><path d="m471 106 1 1-1-1z" fill="#e8eef4"/><path d="m501 106 1 1-1-1z" fill="#55639b"/><path d="m510 106 1 1-1-1z" fill="#eb9f3c"/><path d="m315 107 1 1-1-1z" fill="#b25637"/><path d="m317 107 2 2-2-2z" fill="#e8eef4"/><path d="m323 107v4h1l-1-4z" fill="#b25637"/><path d="m427 107 1 1-1-1z" fill="#55639b"/><path d="m438 107 1 1-1-1m32.333 0.667 0.334 0.666-0.334-0.666m2.667-0.667-1 2 1-2z" fill="#e8eef4"/><path d="m486 107v3h1l-1-3m15 0 1 1-1-1z" fill="#eb9f3c"/><path d="m510 107 1 1-1-1z" fill="#55639b"/><path d="m311 108v2h3v-2h-3z" fill="#b25637"/><path d="m316 108 1 1-1-1m91 0v1h3v1h-4v19h-1v-20h-1v29h8c0-7.131 3.733-28.542-5-30m21 0 1 1-1-1m14 0 1 1-1-1z" fill="#55639b"/><path d="m445 108 1 1-1-1z" fill="#eb9f3c"/><path d="m460.33 108.67 0.334 0.666-0.334-0.666z" fill="#55639b"/><path d="m462 108v5h1l-1-5z" fill="#eb9f3c"/><path d="m405 109v20h1v-19h4l-5-1z" fill="#e8eef4"/><path d="m422 109 1 1-1-1z" fill="#26225a"/><path d="m445 109 1 1-1-1m57 0 1 1-1-1m-190.33 1.333 0.666 0.334-0.666-0.334z" fill="#55639b"/><path d="m420 110c1.617 2.26 2.973 3.301 5 1l-5-1z" fill="#eb9f3c"/><path d="m424 110 1 1-1-1m3 0v1l6 5h1v-5l-7-1m16 0 1 1-1-1z" fill="#55639b"/><path d="m471 110 1 1-1-1z" fill="#e8eef4"/><path d="m486 110v4h1l-1-4z" fill="#55639b"/><path d="m511.33 110.67 0.334 0.666-0.334-0.666z" fill="#eb9f3c"/><path d="m314 111 1 1-1-1z" fill="#b25637"/><path d="m323 111v3h1l-1-3z" fill="#55639b"/><path d="m415 111v2h6v-2h-6m8 0 1 1-1-1z" fill="#e8eef4"/><path d="m427 111c0 6.599-3.724 27.635 6 26l-1-25h-1c0.075 4.731-6.568 20.378 1 22l-4 3-1-26z" fill="#eb9f3c"/><path d="m428 111v26l4-3c-7.166-4.646-1.373-16.651 0-23h-4m12 0 1 1-1-1z" fill="#e8eef4"/><path d="m446 111 1 1-1-1m15.333 0.667 0.334 0.666-0.334-0.666m7 0 0.334 0.666-0.334-0.666z" fill="#55639b"/><path d="m469 111 1 1-1-1z" fill="#e8eef4"/><path d="m304.67 112.33 0.666 0.334-0.666-0.334z" fill="#eb9f3c"/><path d="m312 112 1 1-1-1z" fill="#b25637"/><path d="m444 112 1 1-1-1z" fill="#55639b"/><path d="m470 112 1 1-1-1z" fill="#e8eef4"/><path d="m502 112 1 1-1-1z" fill="#eb9f3c"/><path d="m511 112v5h1l-1-5z" fill="#55639b"/><path d="m302.33 113.67 0.334 0.666-0.334-0.666m3.667-0.667-3 2v1h6l-3-3m109 0v24h1l2-22-3-2z" fill="#eb9f3c"/><path d="m416 113v2l8-2h-8z" fill="#b25637"/><path d="m422 113 1 1-1-1z" fill="#26225a"/><path d="m424.33 113.67 0.334 0.666-0.334-0.666z" fill="#55639b"/><path d="m444 113 1 1-1-1z" fill="#eb9f3c"/><path d="m447 113 1 1-1-1z" fill="#55639b"/><path d="m501 113 1 1-1-1z" fill="#eb9f3c"/><path d="m311 114 1 1-1-1z" fill="#e8eef4"/><path d="m445.33 114.67 0.334 0.666-0.334-0.666m24.667-0.667 1 1-1-1m31.333 0.667 0.334 0.666-0.334-0.666z" fill="#55639b"/><path d="m316 115v1h5l-5-1z" fill="#b25637"/><path d="m321.67 115.33 0.666 0.334-0.666-0.334z" fill="#55639b"/><path d="m416 115 1 1-1-1m2.667 0.333 0.666 0.334-0.666-0.334z" fill="#e8eef4"/><path d="m420 115v1h5l-5-1z" fill="#eb9f3c"/><path d="m442.33 115.67 0.334 0.666-0.334-0.666z" fill="#e8eef4"/><path d="m448 115 1 1-1-1m37 0 1 1-1-1m2 0 1 1-1-1z" fill="#55639b"/><path d="m291.33 116.67 0.334 0.666-0.334-0.666m1.667-0.667 1 1-1-1z" fill="#eb9f3c"/><path d="m304 116 1 1-1-1z" fill="#26225a"/><path d="m416 138 9-1v-21c-12.627 0.045-9 12.253-9 22m16-22v18h1l-1-18z" fill="#b25637"/><path d="m436 116-1 1 3 2-2-3m25 0 1 1-1-1m7 0v2l2-2h-2z" fill="#55639b"/><path d="m470 116 1 1-1-1z" fill="#e8eef4"/><path d="m486 116 1 1-1-1m2 0 1 1-1-1m14 0 1 1-1-1m2 0 1 1-1-1z" fill="#55639b"/><path d="m505 116 1 1-1-1z" fill="#eb9f3c"/><path d="m422 117 1 1-1-1z" fill="#26225a"/><path d="m433.33 117.67 0.334 0.666-0.334-0.666m12.667-0.667 1 1-1-1m3 0 1 1-1-1z" fill="#55639b"/><path d="m469 117 1 1-1-1z" fill="#e8eef4"/><path d="m487 117 1 1-1-1m2 0 1 1-1-1z" fill="#55639b"/><path d="m511 117 1 1-1-1z" fill="#eb9f3c"/><path d="m436 118c0 9.514-3.138 19.957 9 20l-9-20m7 0 1 1-1-1z" fill="#e8eef4"/><path d="m488 118 1 1-1-1m2 0 1 1-1-1z" fill="#55639b"/><path d="m502 118 1 1-1-1m-65 1 1 1-1-1z" fill="#eb9f3c"/><path d="m447 119 1 1-1-1z" fill="#55639b"/><path d="m450 119 1 1-1-1z" fill="#eb9f3c"/><path d="m460.33 119.67 0.334 0.666-0.334-0.666m9 0 0.334 0.666-0.334-0.666z" fill="#55639b"/><path d="m470.33 119.67 0.334 0.666-0.334-0.666z" fill="#e8eef4"/><path d="m489 119 1 1-1-1m2 0 1 1-1-1m11 0 1 1-1-1z" fill="#55639b"/><path d="m504 119-8 11v1c4.479-2.108 9.47-6.621 8-12m-212.67 1.667 0.334 0.666-0.334-0.666z" fill="#eb9f3c"/><path d="m444 120 1 3h1l-2-3z" fill="#e8eef4"/><path d="m490 120 1 1-1-1z" fill="#eb9f3c"/><path d="m492 120 1 1-1-1m18.333 0.667 0.334 0.666-0.334-0.666m-72.333 0.333 1 1-1-1m10 0 1 1-1-1m3 0 1 1-1-1z" fill="#55639b"/><path d="m460 121 1 1-1-1m31 0 1 1-1-1m2 0 1 1-1-1z" fill="#eb9f3c"/><path d="m501 121 1 1-1-1z" fill="#55639b"/><path d="m503 121 1 1-1-1z" fill="#b25637"/><path d="m433.33 122.67 0.334 0.666-0.334-0.666m36.667-0.667 1 1-1-1m-31 1 1 1-1-1m10 0 1 1-1-1z" fill="#55639b"/><path d="m452 123 1 1-1-1z" fill="#eb9f3c"/><path d="m461 123 1 1-1-1m10.333 0.667 0.334 0.666-0.334-0.666m28.667-0.667 1 1-1-1z" fill="#55639b"/><path d="m502 123 1 1-1-1z" fill="#b25637"/><path d="m295 124 1 1-1-1z" fill="#26225a"/><path d="m452 124 1 1-1-1z" fill="#55639b"/><path d="m499 124 1 1-1-1z" fill="#eb9f3c"/><path d="m509 124 1 1-1-1z" fill="#55639b"/><path d="m309 125v1h8l-8-1z" fill="#eb9f3c"/><path d="m440 125 1 1-1-1m10 0 1 1-1-1z" fill="#55639b"/><path d="m453 125 1 1-1-1z" fill="#eb9f3c"/><path d="m462 125 1 1-1-1m10 0 1 1-1-1z" fill="#55639b"/><path d="m501 125 1 1-1-1z" fill="#b25637"/><path d="m296 126 1 1-1-1z" fill="#26225a"/><path d="m309 126v1h8l-8-1z" fill="#e8eef4"/><path d="m440 126 1 1-1-1z" fill="#eb9f3c"/><path d="m447 126 4 11h1l-5-11z" fill="#e8eef4"/><path d="m453 126 1 1-1-1z" fill="#55639b"/><path d="m462 126 1 1-1-1z" fill="#eb9f3c"/><path d="m473 126 1 1-1-1m25 0 1 1-1-1z" fill="#55639b"/><path d="m500 126 1 1-1-1z" fill="#b25637"/><path d="m508 126 1 1-1-1z" fill="#55639b"/><path d="m309 127v1h8l-8-1z" fill="#eb9f3c"/><path d="m441 127 1 1-1-1m10 0 1 1-1-1m12 0 1 1-1-1m11 0 1 1-1-1z" fill="#55639b"/><path d="m499 127 1 1-1-1z" fill="#b25637"/><path d="m441 128 1 1-1-1z" fill="#eb9f3c"/><path d="m454 128 1 1-1-1m21 0 1 1-1-1z" fill="#55639b"/><path d="m495 128 1 1-1-1z" fill="#eb9f3c"/><path d="m498 128 1 1-1-1z" fill="#b25637"/><path d="m507 128 1 1-1-1z" fill="#eb9f3c"/><path d="m452.33 129.67 0.334 0.666-0.334-0.666z" fill="#55639b"/><path d="m464 129 1 1-1-1z" fill="#eb9f3c"/><path d="m477 129 1 1-1-1m17 0 1 1-1-1z" fill="#55639b"/><path d="m497 129 1 1-1-1z" fill="#b25637"/><path d="m506 129 1 1-1-1z" fill="#55639b"/><path d="m304.67 130.33 0.666 0.334-0.666-0.334z" fill="#eb9f3c"/><path d="m304 131v1h18l-18-1z" fill="#e8eef4"/><path d="m308.67 130.33 0.666 0.334-0.666-0.334m2.333-0.333 1 1-1-1m2 0v1h8l-8-1z" fill="#eb9f3c"/><path d="m442 130 1 1-1-1m13 0 1 1-1-1m10 0 1 1-1-1m14 0 1 1-1-1m5 0 1 1-1-1m2 0 1 1-1-1m6 0 1 1-1-1z" fill="#55639b"/><path d="m150 131 1 1-1-1z" fill="#e8eef4"/><path d="m466 131 1 1-1-1m16.667 0.333 0.666 0.334-0.666-0.334m4.333-0.333 1 1-1-1z" fill="#55639b"/><path d="m488 131 1 1-1-1z" fill="#eb9f3c"/><path d="m489 131 1 1-1-1z" fill="#55639b"/><path d="m494 131 1 1-1-1z" fill="#b25637"/><path d="m495 131 1 1-1-1z" fill="#eb9f3c"/><path d="m443 132 1 1-1-1m10 0 1 1-1-1m3 0 1 1-1-1m11 0 1 1-1-1m13 0 1 1-1-1z" fill="#55639b"/><path d="m491 132 1 1-1-1z" fill="#b25637"/><path d="m492 132v1h3l-3-1z" fill="#eb9f3c"/><path d="m311 133v1h12l-12-1z" fill="#26225a"/><path d="m433 133v4h1l-1-4m35 0 1 1-1-1z" fill="#55639b"/><path d="m488 133v1h4l-4-1z" fill="#eb9f3c"/><path d="m444 134 1 1-1-1m10 0 1 1-1-1m3 0 1 1-1-1m12 0 1 1-1-1z" fill="#55639b"/><path d="m485 134 1 1-1-1z" fill="#eb9f3c"/><path d="m501 134 1 1-1-1m-177 1 1 1-1-1z" fill="#55639b"/><path d="m444 135 1 1-1-1m26 0 1 1-1-1z" fill="#eb9f3c"/><path d="m500 135 1 1-1-1z" fill="#55639b"/><path d="m150 136 1 1-1-1z" fill="#e8eef4"/><path d="m445.33 136.67 0.334 0.666-0.334-0.666m10 0 0.334 0.666-0.334-0.666m3 0 0.334 0.666-0.334-0.666m13.667-0.667 1 1-1-1m26 0 1 1-1-1m-97 1 1 1-1-1m14 0 1 1-1-1m12 0 1 1-1-1z" fill="#55639b"/><path d="m431 137 1 1-1-1z" fill="#b25637"/><path d="m432 137 1 1-1-1z" fill="#55639b"/><path d="m436 137 1 1-1-1m23 0 1 1-1-1z" fill="#eb9f3c"/><path d="m473 137 1 1-1-1m24 0 1 1-1-1z" fill="#55639b"/><path d="m149 138 1 1-1-1z" fill="#e8eef4"/><path d="m155 138 1 1-1-1z" fill="#b25637"/><path d="m106 139v1h43c-11.226-4.71-30.781-1-43-1m51 0v1h43c-11.226-4.71-30.781-1-43-1z" fill="#e8eef4"/><path d="m392 140v1h3l-3-1z" fill="#55639b"/><path d="m395 140 1 1-1-1z" fill="#b25637"/><path d="m396 140v1h3l-3-1z" fill="#55639b"/><path d="m399.67 140.33 0.666 0.334-0.666-0.334z" fill="#b25637"/><path d="m401 140v1h3l-3-1z" fill="#55639b"/><path d="m404 140v1h6l-6-1z" fill="#b25637"/><path d="m410 140v1h22l-22-1z" fill="#55639b"/><path d="m432 140 1 1-1-1z" fill="#b25637"/><path d="m433.67 140.33 0.666 0.334-0.666-0.334z" fill="#55639b"/><path d="m435 140 1 1-1-1z" fill="#b25637"/><path d="m436 140v1h4l-4-1z" fill="#55639b"/><path d="m440 140 1 1-1-1z" fill="#b25637"/><path d="m441 140 1 1-1-1z" fill="#55639b"/><path d="m442 140v1h3l-3-1z" fill="#b25637"/><path d="m445 140v1h4l-4-1z" fill="#55639b"/><path d="m449 140v1h3l-3-1z" fill="#b25637"/><path d="m452.67 140.33 0.666 0.334-0.666-0.334z" fill="#55639b"/><path d="m454.67 140.33 0.666 0.334-0.666-0.334z" fill="#b25637"/><path d="m456 140 1 1-1-1z" fill="#55639b"/><path d="m457 140 1 1-1-1z" fill="#b25637"/><path d="m458.67 140.33 0.666 0.334-0.666-0.334z" fill="#55639b"/><path d="m460.67 140.33 0.666 0.334-0.666-0.334z" fill="#b25637"/><path d="m462 140v1h4l-4-1z" fill="#55639b"/><path d="m466.67 140.33 0.666 0.334-0.666-0.334z" fill="#b25637"/><path d="m468 140v1h6l-6-1z" fill="#55639b"/><path d="m474 140v1h4l-4-1z" fill="#b25637"/><path d="m478 140v1h4l-4-1z" fill="#55639b"/><path d="m482 140v1h7l-7-1z" fill="#b25637"/><path d="m489 140v1h6l-6-1z" fill="#55639b"/><path d="m495 140v1h3l-3-1z" fill="#b25637"/><path d="m498 140v1h4l-4-1z" fill="#55639b"/><path d="m502 140 1 1-1-1z" fill="#b25637"/><path d="m503 140v1h7l-7-1z" fill="#55639b"/><path d="m510.67 140.33 0.666 0.334-0.666-0.334z" fill="#b25637"/><path d="m512 140v1l2 3h1v-4h-3z" fill="#55639b"/><path d="m300 141v1h30l-30-1z" fill="#e8eef4"/><path d="m392 141 1 3 41-1h80v-1h-80l-42-1z" fill="#eb9f3c"/><path d="m393 141v1h121c-9.789-4.108-26.366-1-37-1h-84z" fill="#e8eef4"/><path d="m300 142v1h30l-30-1m89 0 1 1-1-1z" fill="#eb9f3c"/><path d="m392 142 1 5h121v-4h-89c-7.672 0-27.086 3.435-33-1m-288 2 1 1-1-1z" fill="#b25637"/><path d="m104 193h45v-49h-31l-12.397 1.028-1.603 12.972v35z" fill="#26225a"/><path d="m155 144 1 1-1-1z" fill="#b25637"/><path d="m155 193h45v-35l-1.603-12.972-22.397-1.028-19.972 1.603-1.028 13.397v34z" fill="#26225a"/><path d="m199 144 1 1-1-1m6 0v49h1c0-13.788 4.309-36.348-1-49z" fill="#b25637"/><path d="m389 144 1 1-1-1z" fill="#eb9f3c"/><path d="m392 144v3h1l-1-3z" fill="#55639b"/><path d="m150 146 1 1-1-1z" fill="#e8eef4"/><path d="m514 146 1 1-1-1m-407 1v32l1.603 10.821 10.397 1.179h27l1-44h-1v25h-1v-4l-16.465-19.397-21.535-1.603z" fill="#55639b"/><path d="m128 147c3.047 6.125 10.029 19.696 17 21v4h1v-25h-18z" fill="#e8eef4"/><path d="m130.67 147.33 0.666 0.334-0.666-0.334m2.333-0.333 1 1-1-1m2 0v1h8l-8-1z" fill="#eb9f3c"/><path d="m157 147 1 44h39v-44h-14l1 6c-7.649-6.211-12.153-6-22-6v1l4 3-3-2-1 18h-4l-1-20z" fill="#55639b"/><path d="m158 147v20h4l1-18 3 2-8-4m21 0 5 6-1-6h-4m21 0v47h-43v1h31l11.397-1.028 1.603-10.972-1-36z" fill="#e8eef4"/><path d="m403 147 1 1-1-1m84 0 1 1-1-1m25 0 1 1-1-1m-224 2v1h3l-3-1m102 0 1 1-1-1m126 0 1 1-1-1z" fill="#55639b"/><path d="m150 150 1 1-1-1m187 0 1 1-1-1z" fill="#e8eef4"/><path d="m391 150 2 6 8-1 1 3c1.217-7.308-5.503-7.996-11-8z" fill="#55639b"/><path d="m403 152c10.271-1.968 10.337 5.141 10 13h1l5-15-16 2z" fill="#b25637"/><path d="m419.33 150.67 0.334 0.666-0.334-0.666m0.667 6.333 46-2 17 1h1v-2h1l2 6c0.58-3.466-1.377-8.605-5.133-9.682-5.286-1.516-12.39-0.318-17.867-0.318-11.718 0-27.621-2.84-38.892 0.318-3.221 0.902-4.105 3.847-5.108 6.682m67-7 1 1-1-1z" fill="#55639b"/><path d="m487 151v1c9.705-1.43 9.58 5.64 9 13 4.481-2.96 6.471-9.83 7-15l-16 1z" fill="#b25637"/><path d="m503.33 150.67 0.334 0.666-0.334-0.666m-0.333 9.333h1l2-6c2.697 0.854 3.386 0.851 4-2l6 1c-2.151-10.039-11.899 2.483-13 7z" fill="#55639b"/><path d="m163 151 1 1-1-1m3 0 1 1-1-1z" fill="#e8eef4"/><path d="m404 151c0.952 5.53 2.806 12.935 9 14 0.665-8.431 1.08-13.532-9-14m84 0c0.893 5.024 2.808 12.222 8 14 0.989-7.823 1.305-13.155-8-14m-97 1 1 1-1-1z" fill="#eb9f3c"/><path d="m403 152 1 1-1-1z" fill="#55639b"/><path d="m510 152-4 2-2 5 11 1-1-4 3 1c-0.74-4.254-3-4.566-7-5z" fill="#eb9f3c"/><path d="m418 153 1 1-1-1z" fill="#55639b"/><path d="m392.33 154.67 0.334 0.666-0.334-0.666z" fill="#eb9f3c"/><path d="m404 154 1 1-1-1z" fill="#b25637"/><path d="m420 163c13.201-5.594 34.708-2.978 49-3 6.013-9e-3 12.473 1.634 18-1l-2-5-2 2c-3.012-2.631-10.974-1-15-1-12.298 0-24.714-0.499-37 0.039-6.001 0.264-11.567 0.891-11 7.961z" fill="#eb9f3c"/><path d="m488 154 1 1-1-1z" fill="#b25637"/><path d="m393 156c1.888 6.149 5.247 6.064 11 5l-3-6-8 1z" fill="#eb9f3c"/><path d="m405 156 1 1-1-1m84 0 1 1-1-1z" fill="#b25637"/><path d="m501 156 1 1-1-1m-96 1 1 1-1-1m11 1 1 1-1-1m3.333 0.667 0.334 0.666-0.334-0.666z" fill="#55639b"/><path d="m490.33 158.67 0.334 0.666-0.334-0.666z" fill="#b25637"/><path d="m500 158 1 1-1-1m-97 1 1 1-1-1z" fill="#55639b"/><path d="m406 159 1 1-1-1z" fill="#b25637"/><path d="m418.33 160.67 0.334 0.666-0.334-0.666z" fill="#55639b"/><path d="m420 160 1 1-1-1z" fill="#e8eef4"/><path d="m404.33 161.67 0.334 0.666-0.334-0.666z" fill="#55639b"/><path d="m407 161 1 1-1-1z" fill="#b25637"/><path d="m488 161 1 1-1-1z" fill="#55639b"/><path d="m491 161 1 1-1-1z" fill="#b25637"/><path d="m499 161 1 1-1-1m3 0 1 1-1-1m-362 1 1 1-1-1m2 0 1 1-1-1z" fill="#55639b"/><path d="m418 162 1 1-1-1m70 0 1 1-1-1m14 0 1 1-1-1z" fill="#eb9f3c"/><path d="m405.33 163.67 0.334 0.666-0.334-0.666z" fill="#55639b"/><path d="m408.33 163.67 0.334 0.666-0.334-0.666z" fill="#b25637"/><path d="m414 163 1 1-1-1m3 0 1 1-1-1m72 0 1 1-1-1z" fill="#55639b"/><path d="m492 163 1 1-1-1z" fill="#b25637"/><path d="m498 163 1 1-1-1m3 0 1 1-1-1z" fill="#55639b"/><path d="m176 164c5e-3 6.179 7e-3 9.77 7 10l-7-10z" fill="#e8eef4"/><path d="m417 164 1 1-1-1m72 0 1 1-1-1z" fill="#eb9f3c"/><path d="m492 164 1 1-1-1z" fill="#55639b"/><path d="m501 164 1 1-1-1z" fill="#eb9f3c"/><path d="m410 165 1 1-1-1z" fill="#55639b"/><path d="m411 165 1 1-1-1z" fill="#b25637"/><path d="m416 165 1 1-1-1m74.333 0.667 0.334 0.666-0.334-0.666m3.334-0.334 0.666 0.334-0.666-0.334m6.666 0.334 0.334 0.666-0.334-0.666m-94.333 0.333 1 1-1-1z" fill="#55639b"/><path d="m416 166 1 1-1-1z" fill="#eb9f3c"/><path d="m415 167 1 1-1-1m76 0 1 1-1-1m8 0 1 1-1-1z" fill="#55639b"/><path d="m233 178 1 1-1-1z" fill="#eb9f3c"/><path d="m234 178 1 1-1-1z" fill="#55639b"/><path d="m249 315h-81l5-29h-7c1.212-8.24 8.171-19.688 6.589-27.887-1.958-10.149-12.468 8.288-13.589 10.887-2.596-6.141-1.023-18.791-5.737-23.377-6.183-6.016-8.194 19.027-8.263 22.377-3.659-3.024-7.16-12.187-12.035-12.824-4.074-0.532-3.545 4.374-2.946 6.825 1.971 8.057 4.455 16.1 6.981 23.999h-8l5 29h-36c-5.2588 0-11.433-0.783-15.347 3.533-10.94 12.064 8.3627 14.285 12.072 20.526 5.3507 9.001 5.7657 20.625 12.804 28.767 12.293 14.22 38.761 9.174 55.471 9.174v8l18 1-19.651 84-12.349 54h-58l-30 1c2.8812 7.167 19.356 4 26 4h82 299 72c4.203 0 21.291 2.397 23.593-1.545 2.46-4.213-7.949-3.455-9.593-3.455h-37-28c-3.407 0-8.711 0.939-11.436-1.603-6.512-6.076-7.351-26.806-9.434-35.397-5.726-23.605-11.288-47.288-16.554-71-2.247-10.114-6.124-20.632-6.576-31h18v-8c17.079 0 43.426 5.091 55.61-10.015 6.472-8.026 6.992-19.131 11.948-27.876 3.506-6.187 23.276-8.529 12.008-20.83-3.842-4.196-10.444-3.279-15.566-3.279h-36c0-11.092 4.562-37.257-5.613-44.987-2.576-1.957-7.332-0.803-10.387-1.013 4.881-7.093-4.028-7-9-7-12.932-1e-3 -25.204 0.982-38 2l12 4v1c-5.192 0.58-17.254-2.591-21.062 1.603-8.327 9.169-0.331 35.857-16.938 36.397-0.387 11.876-16.303 8-25 8 0.096-4.658 6e-3 -13.946 3.589-17.397 4.247-4.091 10.858-0.491 13.669-7.618 2.717-6.89 0.742-17.645 0.742-24.985v-57c0-6.852 2.639-20.724-1.179-26.606-4.458-6.867-24.636-3.394-31.821-3.394h-95c-7.324 0-30.702-3.756-34.972 3.228-3.672 6.006-1.028 19.851-1.028 26.772v58c0 7.264-2.025 18.166 0.742 24.956 2.746 6.737 9.548 2.625 13.516 6.647 3.434 3.481 3.154 12.75 3.742 17.397z" fill="#26225a"/><path d="m390.67 178.33 0.666 0.334-0.666-0.334m-158.67 0.667 1 1-1-1m160 0 1 1-1-1z" fill="#55639b"/><path d="m393 179 1 1-1-1z" fill="#eb9f3c"/><path d="m231 180 1 1-1-1m5 1v1h154c-11.932-5.007-33.009-1-46-1h-108m158 0 1 1-1-1m-164 1v108h1v-75l-1-33m4 0 1 1-1-1z" fill="#55639b"/><path d="m234 274 62-1v-1h-38c-4.577 0-11.918 1.371-15.772-1.603-4.789-3.698-3.228-12.112-3.228-17.397v-47c0-5.543-1.701-14.702 4.109-17.972 8.523-4.798 28.164-1.028 37.891-1.028 32.126 0 64.944-1.966 97 0.044 9.352 0.586 8 8.809 8 15.956v47c0 5.138 1.735 14.253-1.028 18.772-2.803 4.584-10.453 3.228-14.972 3.228h-41c12.174 5.109 30.936 2 44 2 4.35 0 11.192 1.293 13.821-3.148 2.333-3.941 1.179-10.453 1.179-14.852v-34-28c0-2.91 0.912-7.948-1.028-10.397-3.75-4.735-24.171-1.603-29.972-1.603h-89-24c-2.617 1e-3 -7.109-0.75-8.972 1.603-3.601 4.547-1.028 18.74-1.028 24.397v66z" fill="#e8eef4"/><path d="m387.67 182.33 0.666 0.334-0.666-0.334z" fill="#eb9f3c"/><path d="m389 182c4.121 22.201 1 47.429 1 70 0 5.985-2.659 20.929 2 25-5.017-21.071-1-47.338-1-69 0-7.147 2.7-20.407-2-26z" fill="#e8eef4"/><path d="m390 182 1 1-1-1z" fill="#eb9f3c"/><path d="m388 183 1 1-1-1m3 0 1 1-1-1m-158 1v90h1v-62l-1-28z" fill="#55639b"/><path d="m388 184v66c0 6.217 2.529 18.212-3.218 22.411-7.217 5.275-27.003 1.589-35.782 1.589v1l41 2v-93h-2m3.333 0.667 0.334 0.666-0.334-0.666m3.667-0.667v104h1v-72l-1-32m-153 3 1 1-1-1z" fill="#eb9f3c"/><path d="m243 187v1h139c-10.98-4.607-30.056-1-42-1h-97z" fill="#55639b"/><path d="m382 187 1 1-1-1m9 0v89h1v-62l-1-27z" fill="#eb9f3c"/><path d="m241 188 1 1-1-1z" fill="#55639b"/><path d="m384 188 1 1-1-1z" fill="#eb9f3c"/><path d="m150 189 1 1-1-1z" fill="#e8eef4"/><path d="m240 189 1 1-1-1z" fill="#55639b"/><path d="m385 189 1 1-1-1z" fill="#eb9f3c"/><path d="m385 190 1 1-1-1z" fill="#55639b"/><path d="m239 191v77h1v-53l-1-24z" fill="#eb9f3c"/><path d="m243 191v77h38v-1l-15.152-18-18.625-27.91-0.223-26.09 17.91 1.028 10.434 12.972 18.656 27h-6v1l23-1-28-41 24.907 1.028 9.888 11.972 19.205 28h-25v1l29 1-2 20h1l1-17h1l14 25-23 1v-1l8-1v-1l-13 1v3h39l14.397-1.028 1.603-18.972-1-57h-139z" fill="#55639b"/><path d="m104 193 1 1-1-1z" fill="#b25637"/><path d="m105 193v1h44c-11.463-4.81-31.52-1-44-1z" fill="#55639b"/><path d="m149 193-43 1v1h33l10-2z" fill="#e8eef4"/><path d="m155 193 1 1-1-1z" fill="#b25637"/><path d="m156 193v1h43c-11.226-4.71-30.781-1-43-1z" fill="#55639b"/><path d="m199 193 1 1-1-1m6.333 1.667 0.334 0.666-0.334-0.666z" fill="#b25637"/><path d="m247 195 0.173 27 18.675 28 14.242 17.106 16.91-0.106v-1l-11.303-1.742 0.119-8.258-1.816-18 10-2-18.656-28-9.518-11.972-18.826-1.028m36 0 20.141 30 8.952 10.397 24.907 0.603-19.91-30-9.183-10.397-24.907-0.603m42 0c12.6 25.329 33.728 49.636 51 72l1-3h1v3h1l-1-6h1l3 4c0-19.425-16.393-36.55-27.202-52-3.514-5.022-7.561-13.892-12.982-16.972-4.337-2.464-11.964-1.028-16.816-1.028z" fill="#e8eef4"/><path d="m98 196 1 1-1-1m107 0 1 1-1-1m-109 1 1 1-1-1z" fill="#55639b"/><path d="m99 197 1 1-1-1m105 0 1 1-1-1z" fill="#b25637"/><path d="m208 197 1 1-1-1m-112 1 1 1-1-1z" fill="#eb9f3c"/><path d="m100 198 1 1-1-1m103 0 1 1-1-1z" fill="#b25637"/><path d="m207 198 1 1-1-1m-110 1 1 1-1-1z" fill="#55639b"/><path d="m102 199v1h100l-31-1h-69z" fill="#b25637"/><path d="m98 200 1 1-1-1m107 0-1 2 1-2z" fill="#55639b"/><path d="m206 200 1 1-1-1m-107 1 1 1-1-1z" fill="#eb9f3c"/><path d="m100 201 1 1-1-1z" fill="#55639b"/><path d="m205 201 1 1-1-1m-104 1 1 1-1-1z" fill="#eb9f3c"/><path d="m102 202v1h101l-31-1h-70z" fill="#55639b"/><path d="m203 202 1 1-1-1z" fill="#eb9f3c"/><path d="m208 202-1 2 1-2z" fill="#e8eef4"/><path d="m103 204 1 1-1-1m3 1v1h7l-7-1m36 0v1h19l-19-1m-28 0 1 1-1-1m2 0 1 1-1-1m2 0 1 1-1-1m2 0 1 1-1-1m2 0 1 1-1-1m2 0 1 1-1-1m2 0 1 1-1-1m2 0 1 1-1-1m2 0 1 1-1-1m2 0 1 1-1-1m2 0 1 1-1-1m2 0 1 1-1-1m2 0 1 1-1-1m2 0 1 1-1-1m22 0 1 1-1-1m2 0 1 1-1-1m2 0 1 1-1-1m2 0 1 1-1-1m2 0 1 1-1-1m2 0 1 1-1-1m2 0 1 1-1-1m2 0 1 1-1-1m2 0 1 1-1-1m2 0 1 1-1-1m2 0 1 1-1-1m2 0 1 1-1-1m2 0 1 1-1-1m2 0 1 1-1-1m2 0 1 1-1-1m2 0 1 1-1-1m4 0v1h6l-6-1z" fill="#eb9f3c"/><path d="m285 237 1 1-1-1m-0.667 1.667 0.334 0.666-0.334-0.666m20.667 0.333v1h15l-15-1m-15.333 1.333 0.666 0.334-0.666-0.334z" fill="#55639b"/><path d="m291.67 240.33 0.666 0.334-0.666-0.334z" fill="#eb9f3c"/><path d="m289 241v20c11.272 0.047 22.631 1 34 1 4.045 0 9.99 0.739 11-4l-41 1v-16c13.736-0.59 27.458-2.504 41 1-1.79-5.09-7.397-4-12-4-11.041-1e-3 -22.043-0.385-33 1z" fill="#e8eef4"/><path d="m332 240v1l3 1c-3.502 5.675-2.032 12.65-1 19h-4v1c7.655-0.881 8.23-19.487 2-22z" fill="#eb9f3c"/><path d="m334 240v1l2 2h1l-3-3m-49 1v3h1l-1-3z" fill="#55639b"/><path d="m341 241c-1.346 5.654-3.169 17.065 2 21v1l-10 3v1l23-1-15-25z" fill="#e8eef4"/><path d="m289 242 1 1-1-1m9 0v1h3l-3-1z" fill="#eb9f3c"/><path d="m301 242v1h23l-23-1z" fill="#55639b"/><path d="m324 242v1h4l-4-1z" fill="#eb9f3c"/><path d="m334 242 1 1-1-1z" fill="#55639b"/><path d="m149 243 1 1-1-1z" fill="#eb9f3c"/><path d="m150.67 243.33 0.666 0.334-0.666-0.334z" fill="#55639b"/><path d="m152 243 1 1-1-1z" fill="#eb9f3c"/><path d="m289.33 243.67 0.334 0.666-0.334-0.666m3.667-0.667 1 1-1-1z" fill="#55639b"/><path d="m293 244v14l39 1v-16l-39 1z" fill="#26225a"/><path d="m332 243v3h1l-1-3m-184 1 1 1-1-1m5 0 1 1-1-1m1.333 1.667 0.334 0.666-0.334-0.666m131.67-0.667v11h1l-1-11m11 1v10h20l-1-10h-19m38-1v12h1l-1-12z" fill="#55639b"/><path d="m147 246 1 1-1-1z" fill="#eb9f3c"/><path d="m293 246 1 1-1-1m35 0 1 1-1-1m-180.67 1.667 0.334 0.666-0.334-0.666z" fill="#55639b"/><path d="m332 247 1 10h1l-2-10z" fill="#e8eef4"/><path d="m151 248-6 38h12l-2-19h-1v7l-5-1v1h4l-4 7 2-4c-3.922-3.855-3.233-10.754 0-15l1 4-1 4h1l1-16h-1l-1 6h-1l1-12m176 0 1 8h1l-2-8m4.333 0.667 0.334 0.666-0.334-0.666z" fill="#55639b"/><path d="m155 250 1 1-1-1m135.33 0.667 0.334 0.666-0.334-0.666z" fill="#eb9f3c"/><path d="m294.33 250.67 0.334 0.666-0.334-0.666z" fill="#55639b"/><path d="m331 250v3h1l-1-3z" fill="#eb9f3c"/><path d="m155.33 251.67 0.334 0.666-0.334-0.666z" fill="#55639b"/><path d="m146 252 1 1-1-1z" fill="#eb9f3c"/><path d="m146 253v3h1l-1-3z" fill="#55639b"/><path d="m151 253-1 7h1v-7z" fill="#e8eef4"/><path d="m331.33 253.67 0.334 0.666-0.334-0.666z" fill="#55639b"/><path d="m130 254 1 1-1-1z" fill="#eb9f3c"/><path d="m131 254 1 1-1-1m2 0 1 1-1-1z" fill="#55639b"/><path d="m134 254 1 1-1-1z" fill="#eb9f3c"/><path d="m168 254 1 1-1-1m2.667 0.333 0.666 0.334-0.666-0.334z" fill="#55639b"/><path d="m293 254 1 1-1-1z" fill="#eb9f3c"/><path d="m129 255 1 1-1-1z" fill="#55639b"/><path d="m135 255 1 1-1-1z" fill="#eb9f3c"/><path d="m172 255 1 1-1-1m121 0 1 1-1-1z" fill="#55639b"/><path d="m156 256 1 1-1-1z" fill="#eb9f3c"/><path d="m166 256 1 1-1-1m7 0v3h1l-1-3m116 0v3h1l-1-3m43 0v3h1l-1-3m-196 1 1 1-1-1m20 0v3h1l-1-3z" fill="#55639b"/><path d="m165 257 1 1-1-1z" fill="#eb9f3c"/><path d="m137 258 1 1-1-1z" fill="#55639b"/><path d="m145.33 258.67 0.334 0.666-0.334-0.666z" fill="#eb9f3c"/><path d="m285 258v3h1l-1-3m8 0 1 1-1-1m-160 1 6 24h1v-4h1l2 2c-8e-3 -2.744-1.009-16.276-6-12h-1l2-3v-1l-5-6m31 0 1 1-1-1m4 0v5c-10.046 2.013-8.153 14.61-8 22 6.358-3.886 8.371-19.893 10-27h-2z" fill="#55639b"/><path d="m173 259 1 1-1-1m116 0 1 1-1-1m10 0v1h5l-5-1z" fill="#eb9f3c"/><path d="m304 259v1h18l-18-1z" fill="#55639b"/><path d="m322 259v1h4l-4-1z" fill="#eb9f3c"/><path d="m336 259-2 2v1c2.251-0.473 3.118-0.86 2-3m4 0v3h1l-1-3m-211 1 1 1-1-1m9 0 1 1-1-1m7.333 0.667 0.334 0.666-0.334-0.666z" fill="#55639b"/><path d="m151 260 1 6h1l-2-6z" fill="#e8eef4"/><path d="m163 260 1 1-1-1m-34 1 1 1-1-1z" fill="#eb9f3c"/><path d="m139 261 1 1-1-1m33.333 0.667 0.334 0.666-0.334-0.666m111.67-0.667 2 4-2-4m5.667 0.333 0.666 0.334-0.666-0.334z" fill="#55639b"/><path d="m291 261v1h5l-5-1z" fill="#eb9f3c"/><path d="m440 261v1h35l-35-1z" fill="#55639b"/><path d="m475 261 1 1-1-1z" fill="#eb9f3c"/><path d="m134 262 1 4h1l-2-4m15 0c-0.104 5.025-2.866 11.845 2 15l-2 4 4-7h-4v-1l5 1v-8h-1l-1 4h-1l1-4-1-4h-2z" fill="#e8eef4"/><path d="m157.33 262.67 0.334 0.666-0.334-0.666z" fill="#eb9f3c"/><path d="m162 262 1 1-1-1z" fill="#55639b"/><path d="m167.33 262.67 0.334 0.666-0.334-0.666z" fill="#e8eef4"/><path d="m341.67 262.33 0.666 0.334-0.666-0.334z" fill="#55639b"/><path d="m435 262 1 1-1-1z" fill="#eb9f3c"/><path d="m436.67 262.33 0.666 0.334-0.666-0.334m39.333-0.333 1 1-1-1m-346 1 1 1-1-1m10 0 1 1-1-1z" fill="#55639b"/><path d="m161 263 1 1-1-1m269 0 1 1-1-1z" fill="#eb9f3c"/><path d="m431.67 263.33 0.666 0.334-0.666-0.334m45.333-0.333v4h1l-1-4z" fill="#55639b"/><path d="m130.33 264.67 0.334 0.666-0.334-0.666m10.667-0.667 1 1-1-1z" fill="#eb9f3c"/><path d="m157.33 264.67 0.334 0.666-0.334-0.666z" fill="#55639b"/><path d="m166 264-6 14h4l2-14z" fill="#e8eef4"/><path d="m171.33 264.67 0.334 0.666-0.334-0.666m265.67 1.333 3-1-3 1z" fill="#55639b"/><path d="m438 265v1h37v-2l-37 1z" fill="#e8eef4"/><path d="m144 265 1 1-1-1z" fill="#eb9f3c"/><path d="m160 265 1 1-1-1m126 0v1h11l-11-1m14 8h25v-1h-24v-6h24c-8.152-3.421-24.873-3.706-25 7m175-8 1 1-1-1z" fill="#55639b"/><path d="m136 266v3h1l1-3h-2z" fill="#e8eef4"/><path d="m142 266 1 1-1-1m2.333 0.667 0.334 0.666-0.334-0.666z" fill="#55639b"/><path d="m171 266 1 1-1-1z" fill="#eb9f3c"/><path d="m301 266v6h24v-6h-24m79.667 0.333 0.666 0.334-0.666-0.334z" fill="#e8eef4"/><path d="m428 266 1 1-1-1z" fill="#eb9f3c"/><path d="m429 266 1 1-1-1m11 0v1h35l-35-1m-309 1 1 1-1-1z" fill="#55639b"/><path d="m143 267 1 1-1-1m15 0 1 1-1-1z" fill="#eb9f3c"/><path d="m159 267 1 1-1-1m128 0v1h10l-10-1m101 0 1 1-1-1z" fill="#55639b"/><path d="m433 267 1 1-1-1z" fill="#eb9f3c"/><path d="m434.67 267.33 0.666 0.334-0.666-0.334z" fill="#55639b"/><path d="m131 268 1 1-1-1z" fill="#eb9f3c"/><path d="m138 268 1 11h1v-3h1v3h1l-4-11z" fill="#e8eef4"/><path d="m158 268 1 1-1-1m12.333 0.667 0.334 0.666-0.334-0.666m214.67-0.667 1 1-1-1z" fill="#55639b"/><path d="m437 268 1 1-1-1z" fill="#eb9f3c"/><path d="m436 269v1l4-1h-4m39-1 2 2v-2h-2m-337 1 2 3-2-3m26 0 1 1-1-1m76 0 1 1-1-1z" fill="#55639b"/><path d="m385 269 1 1-1-1z" fill="#eb9f3c"/><path d="m418 269 1 1-1-1m68 0 1 1-1-1m-353.67 1.667 0.334 0.666-0.334-0.666m17 0 0.334 0.666-0.334-0.666m234.67-0.667 1 1-1-1z" fill="#55639b"/><path d="m487 270 1 1-1-1z" fill="#eb9f3c"/><path d="m163 271-2 6h1l2-3-1-3z" fill="#55639b"/><path d="m242 271 1 1-1-1z" fill="#eb9f3c"/><path d="m243 271v1l54 1-14-2h-40m85 2c16.936-4.032 37.604-1 55-1-10.98-4.607-30.056-1-42-1-4.068 0-10.152-1.259-13 2z" fill="#55639b"/><path d="m417 271 1 1-1-1z" fill="#eb9f3c"/><path d="m487 271 1 1-1-1m-318 1 1 1-1-1m248.33 0.667 0.334 0.666-0.334-0.666m3.667-0.667v1l62 1v-2h-62m-281 1 1 1-1-1z" fill="#55639b"/><path d="m169 273 1 1-1-1m117.67 0.333 0.666 0.334-0.666-0.334z" fill="#eb9f3c"/><path d="m288 273v1h4l-4-1m46 0v1h4l-4-1z" fill="#55639b"/><path d="m338.67 273.33 0.666 0.334-0.666-0.334m82.333-0.333 1 4h1l-2-4z" fill="#eb9f3c"/><path d="m422 275 6-1-6 1z" fill="#e8eef4"/><path d="m428 273 1 1-1-1z" fill="#eb9f3c"/><path d="m429 273v1h8l-8-1z" fill="#e8eef4"/><path d="m437 273v1h30l-30-1z" fill="#eb9f3c"/><path d="m133 274 1 1-1-1z" fill="#55639b"/><path d="m154 274-3 10-3-8h-1l2 7v1h-3v1h10l-2-5v-6z" fill="#e8eef4"/><path d="m234 274v3l38-2c-10.036-4.211-27.089-1-38-1m39.667 0.333 0.666 0.334-0.666-0.334z" fill="#eb9f3c"/><path d="m275 274v1h7l-7-1m69 0v1h5l-5-1m76 0v3h1l-1-3m3 0 1 3h1c0-3.379 8.958-2.296 12-2 12.888 1.253 28.54-1.607 41 2l-7.43 23.397-14.57 1.603h-37l1-14h-1l1 5h-1v-2h-1l1 5-2 2h-1v-2h-1l2 8h-1l-1-4h-1c0.539 3.232 1.898 4.725-1 4v1 1l63-1 6-30-59-1m63 0 1 1-1-1z" fill="#55639b"/><path d="m133 275 1 1-1-1z" fill="#eb9f3c"/><path d="m168 275 1 1-1-1m101 0v1h5l-5-1m82 0v1h6l-6-1z" fill="#55639b"/><path d="m421 275-1 7h1v-7z" fill="#e8eef4"/><path d="m425 277c-3.419 0.511-2.63 4.143-2 7l-1 4-3 14h38l14.272-1.603 6.728-23.397-41-1.94-12 1.94z" fill="#26225a"/><path d="m487 275 1 1-1-1z" fill="#55639b"/><path d="m168 276 1 1-1-1z" fill="#eb9f3c"/><path d="m264 276v1h4l-4-1m27 0v1h5l-5-1z" fill="#55639b"/><path d="m296 276v1h3l-3-1z" fill="#eb9f3c"/><path d="m247 285c9.506 33.827 10.154 72.238 6.83 107-1.303 13.633-5.548 27.353-5.83 41l51 6v-4c-11.119-1e-3 -22.159-2.03-33-4.424-3.265-0.722-9.072-1.198-11.223-4.089-1.969-2.646-0.022-7.564 0.47-10.487 1.502-8.933 3.213-17.945 3.718-27 1.874-33.67 0.469-65.825-5.965-99 15.803-2.128 30.937-6.81 47-7.91 24.75-1.695 47.973 2.951 72 7.91l1-6c-12.347-5.244-27.746-6.117-41-7.089-28.646-2.1-57.253 0.273-85 8.089z" fill="#e8eef4"/><path d="m328.67 276.33 0.666 0.334-0.666-0.334z" fill="#eb9f3c"/><path d="m330 276v1h5l-5-1m27 0v1h5l-5-1m59.333 0.667 0.334 0.666-0.334-0.666m71.667-0.667 1 1-1-1m-353.67 1.667 0.334 0.666-0.334-0.666m99.667-0.667v1h29l-29-1m48 0v1h3l-3-1z" fill="#55639b"/><path d="m285 277 1 1-1-1m54.667 0.333 0.666 0.334-0.666-0.334z" fill="#eb9f3c"/><path d="m341 277v1h3l-3-1m22 0v1h29l-29-1z" fill="#55639b"/><path d="m420 277 1 1-1-1z" fill="#eb9f3c"/><path d="m422.33 277.67 0.334 0.666-0.334-0.666m66.667-0.667 1 1-1-1m-213.33 1.333 0.666 0.334-0.666-0.334z" fill="#55639b"/><path d="m277 278 1 1-1-1m70 0 1 1-1-1z" fill="#eb9f3c"/><path d="m348 278v1h3l-3-1z" fill="#55639b"/><path d="m421.33 278.67 0.334 0.666-0.334-0.666z" fill="#eb9f3c"/><path d="m485 278v1 1l4 1-4-3z" fill="#55639b"/><path d="m490 278 1 1-1-1z" fill="#eb9f3c"/><path d="m140 279v5h1l-1-5m22 0-1 6h1v-6z" fill="#e8eef4"/><path d="m167 279 1 1-1-1m102.67 0.333 0.666 0.334-0.666-0.334z" fill="#55639b"/><path d="m271 279 1 1-1-1m83 0 1 1-1-1z" fill="#eb9f3c"/><path d="m355.67 279.33 0.666 0.334-0.666-0.334m63.666 0.334 0.334 0.666-0.334-0.666z" fill="#55639b"/><path d="m486 279-8 31c-23.195-4.8-50.323-0.868-74-1 0.692 8.88 12.319 6 19 6 20.013 0 46.846 4.662 66-1-2.357-9.899 3.124-26.916-3-35z" fill="#e8eef4"/><path d="m167 280 1 1-1-1z" fill="#eb9f3c"/><path d="m264 280 1 1-1-1z" fill="#55639b"/><path d="m265 280 1 1-1-1m94 0 1 1-1-1z" fill="#eb9f3c"/><path d="m360.67 280.33 0.666 0.334-0.666-0.334z" fill="#55639b"/><path d="m415 280 1 1-1-1z" fill="#eb9f3c"/><path d="m421 280 1 4h1l-2-4m6.333 0.667 0.334 0.666-0.334-0.666z" fill="#55639b"/><path d="m428 280c-3.153 15.13 11.319 17.459 22 17-5.401-12.36-10.012-14.146-22-17z" fill="#e8eef4"/><path d="m429 280v1c12.047 1e-3 14.975 6.384 21 16h-6v1h25l4-18h-44z" fill="#55639b"/><path d="m485 280 1 1-1-1m6 0v34h1l-1-34z" fill="#eb9f3c"/><path d="m135 281 1 1-1-1m17 0v1c1.96 0.653 2.554 1 0 1v1l3-3h-3m82 0v1h4l-4-1z" fill="#55639b"/><path d="m238 281c1.769 2.034 3.231 2.034 5 0h-5z" fill="#eb9f3c"/><path d="m240.67 281.33 0.666 0.334-0.666-0.334m2.333-0.333v2l2-2h-2m16 0 1 1-1-1z" fill="#55639b"/><path d="m260 281 1 1-1-1m104 0 1 1-1-1z" fill="#eb9f3c"/><path d="m365.67 281.33 0.666 0.334-0.666-0.334m15.333-0.333v1l11 1-11-2m34 0 1 1-1-1z" fill="#55639b"/><path d="m419 281 2 3-2-3z" fill="#eb9f3c"/><path d="m449 281c4.823 8.383 9.08 15.28 19 16-2.03-11.383-8.099-16-19-16z" fill="#e8eef4"/><path d="m488 281v32h1l-1-32m-353 1 1 1-1-1z" fill="#eb9f3c"/><path d="m141 282-1 4 1-4m25 0 1 1-1-1z" fill="#55639b"/><path d="m234 282 1 3 3-2-4-1z" fill="#e8eef4"/><path d="m254.67 282.33 0.666 0.334-0.666-0.334z" fill="#55639b"/><path d="m256 282 1 1-1-1m40 0 1 1-1-1z" fill="#eb9f3c"/><path d="m297 282v1h7l-7-1m23 0v1h8l-8-1z" fill="#55639b"/><path d="m328 282v1h3l-3-1z" fill="#eb9f3c"/><path d="m369.67 282.33 0.666 0.334-0.666-0.334z" fill="#55639b"/><path d="m383 282v1h8l-8-1m-217 1 1 1-1-1m68 0v6h1l-1-6m2 0 1 1-1-1z" fill="#eb9f3c"/><path d="m237 283v1l6 1-6-2m13.667 0.333 0.666 0.334-0.666-0.334z" fill="#55639b"/><path d="m252 283 1 1-1-1m34 0 1 1-1-1z" fill="#eb9f3c"/><path d="m287 283v1h4l-4-1m48 0v1h3l-3-1z" fill="#55639b"/><path d="m338.67 283.33 0.666 0.334-0.666-0.334m33.333-0.333-5.985 57 1.166 54.996 4.819 32.004 2 3-48 8c6.138 6.263 18.131 0.039 26 1l6-1c0-3.183 2.615-1.69 5-1v-3l5 2c0-2.854 1.686-1.67 4-1l6-7h-1v2h-1c-1.038-13.046-4.58-25.925-5.83-39-2.289-23.939-1.464-48.115 0.755-72 0.76-8.176 8.57-31.388 1.075-36z" fill="#eb9f3c"/><path d="m373.67 283.33 0.666 0.334-0.666-0.334m44.333-0.333v3h1l-1-3z" fill="#55639b"/><path d="m419 283v3h1l-1-3z" fill="#e8eef4"/><path d="m426 283-3 15h13l-10-15m58 0 1 1-1-1m-347.67 1.667 0.334 0.666-0.334-0.666m99.667-0.667 1 1-1-1m11 0 1 1-1-1z" fill="#55639b"/><path d="m248 284 1 1-1-1m31 0 1 1-1-1z" fill="#eb9f3c"/><path d="m280 284v1h3l-3-1m63 0v1h3l-3-1z" fill="#55639b"/><path d="m346 284 1 1-1-1z" fill="#eb9f3c"/><path d="m375 284v1l4 1v-1l-4-1z" fill="#55639b"/><path d="m414 284 1 1-1-1z" fill="#eb9f3c"/><path d="m420 284 1 4h1l-2-4z" fill="#55639b"/><path d="m484 284 1 1-1-1m-354 1v1h6l-6-1z" fill="#eb9f3c"/><path d="m166 285 1 1-1-1z" fill="#55639b"/><path d="m167 285v1h6l-6-1z" fill="#eb9f3c"/><path d="m235 285v6h1l-1-6z" fill="#55639b"/><path d="m273 285 1 1-1-1z" fill="#eb9f3c"/><path d="m274.67 285.33 0.666 0.334-0.666-0.334m43.333-0.333 17 18h1l14-15-32-3m31 0v1h3l-3-1z" fill="#55639b"/><path d="m376 285c-4.042 31.302-8.352 61.227-6.961 93 0.77 17.565 4.718 34.629 6.961 52h1c-0.418-20.233-6.068-40.625-6.961-61-1.252-28.597 4.328-55.868 7.961-84h-2z" fill="#e8eef4"/><path d="m414.33 285.67 0.334 0.666-0.334-0.666z" fill="#55639b"/><path d="m173 286 1 1-1-1z" fill="#eb9f3c"/><path d="m247.33 286.67 0.334 0.666-0.334-0.666z" fill="#55639b"/><path d="m268 286 1 1-1-1z" fill="#eb9f3c"/><path d="m269.67 286.33 0.666 0.334-0.666-0.334m-4.667 4.667 11 12h1l17-16c-7.658-2.747-21.32 1.842-29 4m90.667-4.667 0.666 0.334-0.666-0.334z" fill="#55639b"/><path d="m357 286 1 1-1-1m61 0 2 2v-2h-2z" fill="#eb9f3c"/><path d="m173 287 1 1-1-1m91.667 0.333 0.666 0.334-0.666-0.334m95.333-0.333 1 1-1-1z" fill="#55639b"/><path d="m361 287 1 1-1-1z" fill="#eb9f3c"/><path d="m417 287v3h1l-1-3z" fill="#55639b"/><path d="m418 287v3h1l-1-3z" fill="#e8eef4"/><path d="m483.33 287.67 0.334 0.666-0.334-0.666z" fill="#55639b"/><path d="m173.33 288.67 0.334 0.666-0.334-0.666z" fill="#eb9f3c"/><path d="m260.67 288.33 0.666 0.334-0.666-0.334m103.33-0.333 1 1-1-1z" fill="#55639b"/><path d="m365 288 1 1-1-1m12 0 1 1-1-1m36 0 1 1-1-1z" fill="#eb9f3c"/><path d="m133 290c1.191 6.319 1.189 17.447 4.988 22.682 2.789 3.842 22.892 4.238 26.074 0.715 2.36-2.614 2.494-8.076 3.135-11.397 0.602-3.123 3.255-10.51-0.519-12.397-4.642-2.321-13.561-0.603-18.678-0.603-5.037 0-10.146-0.435-15 1z" fill="#b25637"/><path d="m256.67 289.33 0.666 0.334-0.666-0.334m111.33-0.333 1 1-1-1z" fill="#55639b"/><path d="m369 289 1 1-1-1z" fill="#eb9f3c"/><path d="m377.33 289.67 0.334 0.666-0.334-0.666m36 0 0.334 0.666-0.334-0.666z" fill="#55639b"/><path d="m483 289 1 1-1-1z" fill="#eb9f3c"/><path d="m129 290 1 1-1-1z" fill="#55639b"/><path d="m248 290 1 1-1-1m5 0 1 1-1-1z" fill="#eb9f3c"/><path d="m394 290 1 1-1-1z" fill="#55639b"/><path d="m417.67 290.33 0.666 0.334-0.666-0.334z" fill="#eb9f3c"/><path d="m419 290v3h1l-1-3z" fill="#26225a"/><path d="m129.33 291.67 0.334 0.666-0.334-0.666z" fill="#eb9f3c"/><path d="m172 291v3h1l-1-3m59 0 1 1-1-1m17.333 0.667 0.334 0.666-0.334-0.666m5 0 0.334 0.666-0.334-0.666m52.667-0.667c-4.949 4.408-17.619 13.409-18.829 20.05-0.829 4.553 15.504 20.571 19.818 19.644 6.735-1.447 15.489-13.618 20.011-18.694v-1l-21-20m66.333 0.667 0.334 0.666-0.334-0.666z" fill="#55639b"/><path d="m417.33 291.67 0.334 0.666-0.334-0.666z" fill="#e8eef4"/><path d="m482.33 291.67 0.334 0.666-0.334-0.666m-89.333 0.333 1 1-1-1m23.333 0.667 0.334 0.666-0.334-0.666z" fill="#55639b"/><path d="m476 292 1 1-1-1z" fill="#26225a"/><path d="m232 293 1 1-1-1z" fill="#eb9f3c"/><path d="m367 293-5 37h1c1.211-9.583 7.432-28.206 4-37z" fill="#55639b"/><path d="m376 293 1 1-1-1z" fill="#eb9f3c"/><path d="m392 293 1 1-1-1m20 0v3h1l-1-3z" fill="#55639b"/><path d="m417 293-1 3 1-3m65 0 1 1-1-1z" fill="#eb9f3c"/><path d="m130 294v3h1l-1-3z" fill="#55639b"/><path d="m172 294 1 1-1-1m61 0 1 1-1-1z" fill="#eb9f3c"/><path d="m371 294v4h1l-1-4m5.333 0.667 0.334 0.666-0.334-0.666m14.667-0.667 1 1-1-1z" fill="#55639b"/><path d="m418.33 294.67 0.334 0.666-0.334-0.666z" fill="#26225a"/><path d="m235 295 1 1-1-1m138 0 1 1-1-1m16 0 1 1-1-1z" fill="#55639b"/><path d="m390 295 1 1-1-1z" fill="#eb9f3c"/><path d="m465 295 1 1-1-1z" fill="#55639b"/><path d="m238 296v1h7l-7-1z" fill="#eb9f3c"/><path d="m245 296 1 1-1-1z" fill="#55639b"/><path d="m249 296 1 1-1-1z" fill="#eb9f3c"/><path d="m254 296 1 1-1-1z" fill="#55639b"/><path d="m380 296v1h7l-7-1z" fill="#eb9f3c"/><path d="m416 296 1 1-1-1z" fill="#e8eef4"/><path d="m481 296 1 1-1-1z" fill="#55639b"/><path d="m130 297 1 1-1-1z" fill="#eb9f3c"/><path d="m171.33 297.67 0.334 0.666-0.334-0.666m77.667-0.667 1 1-1-1z" fill="#55639b"/><path d="m254 297 1 1-1-1z" fill="#eb9f3c"/><path d="m379 297 1 1-1-1z" fill="#55639b"/><path d="m411 297 1 1-1-1m5 0 1 1-1-1m65 0 1 1-1-1z" fill="#eb9f3c"/><path d="m246 298v3h1l-1-3z" fill="#55639b"/><path d="m379 298 1 1-1-1z" fill="#eb9f3c"/><path d="m411 298 1 1-1-1z" fill="#55639b"/><path d="m415 298v4h1l-1-4z" fill="#eb9f3c"/><path d="m417.33 298.67 0.334 0.666-0.334-0.666z" fill="#26225a"/><path d="m370 299v4h1l-1-4z" fill="#55639b"/><path d="m375 299 1 1-1-1z" fill="#eb9f3c"/><path d="m131.33 300.67 0.334 0.666-0.334-0.666m124 0 0.334 0.666-0.334-0.666m120 0 0.334 0.666-0.334-0.666m105 0 0.334 0.666-0.334-0.666z" fill="#55639b"/><path d="m246 301 1 1-1-1m4 0 1 1-1-1m160 0 1 1-1-1z" fill="#eb9f3c"/><path d="m416 301v3h1l-1-3z" fill="#26225a"/><path d="m131 302 1 1-1-1z" fill="#eb9f3c"/><path d="m170.33 302.67 0.334 0.666-0.334-0.666m80 0 0.334 0.666-0.334-0.666z" fill="#55639b"/><path d="m255 302 1 1-1-1z" fill="#eb9f3c"/><path d="m378.33 302.67 0.334 0.666-0.334-0.666m32 0 0.334 0.666-0.334-0.666z" fill="#55639b"/><path d="m414 302v3h1l-1-3z" fill="#eb9f3c"/><path d="m259 303 2 16 7-6-9-10z" fill="#55639b"/><path d="m467 303 1 1-1-1m6 0 1 1-1-1z" fill="#26225a"/><path d="m170 304 1 1-1-1z" fill="#eb9f3c"/><path d="m247 304v3h1l-1-3m104 0-7 8 4 3 3-11m18 0v5h1l-1-5z" fill="#55639b"/><path d="m374.33 304.67 0.334 0.666-0.334-0.666m3.667-0.667 1 1-1-1z" fill="#eb9f3c"/><path d="m479.33 304.67 0.334 0.666-0.334-0.666m-347 1 0.334 0.666-0.334-0.666z" fill="#55639b"/><path d="m409 305 1 1-1-1z" fill="#eb9f3c"/><path d="m256.33 306.67 0.334 0.666-0.334-0.666m118 0 0.334 0.666-0.334-0.666m26.667-0.667v8h1v-7h7l-8-1z" fill="#55639b"/><path d="m479 306 1 1-1-1m-347 1 1 1-1-1z" fill="#eb9f3c"/><path d="m169.33 307.67 0.334 0.666-0.334-0.666z" fill="#55639b"/><path d="m247 307 1 1-1-1m4 0 1 1-1-1z" fill="#eb9f3c"/><path d="m261 307 1 1-1-1z" fill="#26225a"/><path d="m251 308v3h1l-1-3z" fill="#55639b"/><path d="m256 308 1 1-1-1z" fill="#eb9f3c"/><path d="m371 308 1 1-1-1m6 0v3h1l-1-3m27 0v1h6l-6-1m74 0 1 1-1-1z" fill="#55639b"/><path d="m169 309 1 1-1-1z" fill="#eb9f3c"/><path d="m403 309v5h1l-1-5z" fill="#55639b"/><path d="m411 309 1 1-1-1m4 0 1 1-1-1m59 0 1 1-1-1m2.667 0.333 0.666 0.334-0.666-0.334z" fill="#eb9f3c"/><path d="m133.33 310.67 0.334 0.666-0.334-0.666m234.67-0.667v6h1l-1-6m-120 1v4h1l-1-4z" fill="#55639b"/><path d="m373 311 1 1-1-1m4 0 1 1-1-1m-244 1 1 1-1-1z" fill="#eb9f3c"/><path d="m168 312v3h1l-1-3m89 0v3h1l-1-3m116 0v3h1l-1-3m-240 2 1 1-1-1z" fill="#55639b"/><path d="m252.33 314.67 0.334 0.666-0.334-0.666m124.67-0.667 1 1-1-1m23 0 1 1-1-1m4 0 1 1-1-1z" fill="#eb9f3c"/><path d="m488 314 1 1-1-1m3 0 1 1-1-1m-405 1 1 1-1-1z" fill="#55639b"/><path d="m257 315 1 1-1-1z" fill="#eb9f3c"/><path d="m538 315 1 1-1-1z" fill="#55639b"/><path d="m539 315 1 1-1-1z" fill="#eb9f3c"/><path d="m84 316 1 1-1-1m168.33 0.667 0.334 0.666-0.334-0.666m-169.33 0.333 1 1-1-1m284 0v7h1l-1-7m175 0 1 1-1-1m-453.33 1.333 0.6666 0.334-0.6666-0.334z" fill="#55639b"/><path d="m90 318v1h158c-12.17-5.107-33.747-1-47-1h-111z" fill="#eb9f3c"/><path d="m248 318 2 2-2-2z" fill="#55639b"/><path d="m372.33 318.67 0.334 0.666-0.334-0.666z" fill="#eb9f3c"/><path d="m376 318 1 1-1-1z" fill="#55639b"/><path d="m376 325h126 29c4.367-2e-3 8.44 0.701 10-4h-164v-2h159c-10.028-4.208-27.104-1-38-1h-86c-9.069 0-35.611-4.846-36 7z" fill="#eb9f3c"/><path d="m536.67 318.33 0.666 0.334-0.666-0.334m6.333-0.333 1 1-1-1m-462 1 1 1-1-1m5 0 1 1-1-1z" fill="#55639b"/><path d="m84 325c13.686-7.811 34.568-4 50-4h115v-2h-125c-9.293 0-36.895-4.704-40 6m293-6v2h109l54 1c-2.738-3.876-7.647-3-12-3h-29-122z" fill="#e8eef4"/><path d="m538 319 1 1-1-1m-453 1 1 1-1-1z" fill="#eb9f3c"/><path d="m249 320v5h-125-29c-4.66 0-9.0329-0.893-11 4l3 3 56-1h107l-1-11z" fill="#b25637"/><path d="m258 320v3h1l-1-3m77 0-20 21v1l21 20c3.611-13.957 12.676-32.359-1-42m37 0v4h1l-1-4m168 0 1 1-1-1m4 0 1 1-1-1m-464 1 1 1-1-1m4 0 1 1-1-1z" fill="#55639b"/><path d="m85 325h164v-4h-121c-10.936 0-35.14-4.506-43 4z" fill="#eb9f3c"/><path d="m276.04 322.26c-13.063 2.406-16.529 21.99-8.896 30.73 2.2 2.519 6.84 8.204 10.727 7.128 4.041-1.118 18.619-14.683 18.097-19.203-0.445-3.854-5.424-7.366-7.967-9.91-2.755-2.756-7.462-9.573-11.961-8.745m264.96-1.255 1 1-1-1z" fill="#55639b"/><path d="m541 322c-7.343 7.499-32.769 3-43 3h-122l-1 7c19.298-4.595 43.168-1 63-1 32.343 0 69.215-4.901 101 1l2-10z" fill="#b25637"/><path d="m545 322v6h1l-1-6m-462 1 1 1-1-1z" fill="#55639b"/><path d="m253 323 1 1-1-1m5 0 1 1-1-1m-179 1v3h1l-1-3m4 0 2 3-2-3z" fill="#eb9f3c"/><path d="m253 324v4h1l-1-4m113 1v10h1l-1-10m9 0v5h1l-1-5m-292 2 1 1-1-1m176 1v5h1l-1-5z" fill="#55639b"/><path d="m545 328 1 1-1-1z" fill="#eb9f3c"/><path d="m80 329 1 1-1-1z" fill="#55639b"/><path d="m371 329 1 1-1-1z" fill="#eb9f3c"/><path d="m540 329 1 1-1-1m-455 1 1 1-1-1z" fill="#55639b"/><path d="m86 330 1 1-1-1z" fill="#eb9f3c"/><path d="m250 330-2 2v1l2-3m121 0v5h1l-1-5z" fill="#55639b"/><path d="m538 330 1 1-1-1z" fill="#eb9f3c"/><path d="m544 330 1 1-1-1m-463 1 1 1-1-1z" fill="#55639b"/><path d="m89 331v1h161c-12.407-5.206-34.485-1-48-1h-113m287 0v1h161c-12.407-5.206-34.485-1-48-1h-113z" fill="#eb9f3c"/><path d="m543 331 1 1-1-1m-461 1 1 1-1-1m1 1 1 1-1-1z" fill="#55639b"/><path d="m259 333v3h1l-1-3z" fill="#eb9f3c"/><path d="m541 333 1 1-1-1m-456 1 1 1-1-1z" fill="#55639b"/><path d="m254.33 334.67 0.334 0.666-0.334-0.666z" fill="#eb9f3c"/><path d="m540 334 1 1-1-1m-453 1v1h6l-6-1m446 0v1h5l-5-1z" fill="#55639b"/><path d="m538 335 1 1-1-1m-440 3 3-1 12 30-3-2 4 2 1 3 136 1v-3h-108c-10.535 0-18.695 0.407-25-8-2.466-3.288-4.587-3.653-4-6h-2v-5l-2 1v-1l1-2v-1l-2 1v-1l1-2v-1l-2 1v-1c10.615-5.665 30.061-2 42-2h101v-4h-114l-29-0.454-10 1.454z" fill="#eb9f3c"/><path d="m101 336v1h5l-5-1m6 0v1h3l-3-1m4 0v1h140c-10.98-4.607-30.056-1-42-1h-98z" fill="#b25637"/><path d="m254 336v6h1l-1-6z" fill="#55639b"/><path d="m374 341h1v-4h146c-9.074-3.808-24.153-1-34-1h-79c-7.474 0-32.505-3.961-34 5z" fill="#b25637"/><path d="m375 337v4l143 1c-1.906 11.077-8.546 22.286-20 25.239-12.447 3.21-28.174 0.761-41 0.761h-83c2.617 4.037 7.606 3 12 3h32 61c9.793 0 20.617 1.451 28.96-4.789 8.597-6.431 11.345-19.633 15.04-29.211l-1-1-49 1h-98z" fill="#eb9f3c"/><path d="m522 336c-0.502 11.727-8.98 28.371-20 33.045-10.884 4.616-26.377 1.955-38 1.955h-58c-10.363 0-21.883 1.409-32-1 4.242 6.544 25.624 3 33 3h86c9.375-1e-3 23.921-2.252 25-14l3-8 6-15h-5z" fill="#b25637"/><path d="m527.33 336.67 0.334 0.666-0.334-0.666m3.667-0.667 1 1-1-1m-437 1 1 1-1-1z" fill="#55639b"/><path d="m99 337c1.668 9.691 5.915 23.992 14 30-3.272-7.495-7.42-25.497-14-30z" fill="#e8eef4"/><path d="m365 337v45h1c0-12.742 3.91-33.299-1-45z" fill="#55639b"/><path d="m526 337 1 1-1-1m5 0 1 1-1-1m-437 1 1 1-1-1z" fill="#eb9f3c"/><path d="m98 338 1 1-1-1m432.33 0.667 0.334 0.666-0.334-0.666m-435.33 1.333 1 1-1-1z" fill="#55639b"/><path d="m99 340 1 1-1-1z" fill="#eb9f3c"/><path d="m99 341 1 1-1-1z" fill="#55639b"/><path d="m108 344c12.605-5.341 31.421-2 45-2h98c-8.835-3.707-23.415-1-33-1h-77c-7.377 0-28.757-3.544-33 3z" fill="#e8eef4"/><path d="m251 341 1 1-1-1m123 0 2 2-2-2z" fill="#55639b"/><path d="m375 341v1h139c-10.98-4.607-30.056-1-42-1h-97z" fill="#e8eef4"/><path d="m529 341 1 1-1-1z" fill="#55639b"/><path d="m100.33 342.67 0.334 0.666-0.334-0.666z" fill="#eb9f3c"/><path d="m110.67 342.33 0.666 0.334-0.666-0.334m149.33-0.333v10h1l-1-10m254 0 1 1-1-1z" fill="#55639b"/><path d="m516 342 1 4h1l-2-4z" fill="#b25637"/><path d="m529 342 1 1-1-1z" fill="#eb9f3c"/><path d="m96 343 1 1-1-1z" fill="#55639b"/><path d="m370 343v4h1l-1-4z" fill="#eb9f3c"/><path d="m100 344 1 1-1-1m428 0 1 1-1-1m-430.67 1.667 0.3334 0.666-0.3334-0.666z" fill="#55639b"/><path d="m101.33 345.67 0.334 0.666-0.334-0.666z" fill="#eb9f3c"/><path d="m109.33 345.67 0.334 0.666-0.334-0.666z" fill="#e8eef4"/><path d="m110 345 1 1-1-1m87 0v1h6l-6-1m230 0 1 1-1-1m97 0 1 1-1-1z" fill="#55639b"/><path d="m528 345 1 1-1-1z" fill="#eb9f3c"/><path d="m119 346-1 3-1-2h-1l5 8h1l-3-8 24 1h48v1h-7v1l9-3h-44l-30-1z" fill="#55639b"/><path d="m197.33 346.67 0.334 0.666-0.334-0.666z" fill="#b25637"/><path d="m198 346c0.987 6.682 3.113 15.525 10 18 1.419-6.831-2.373-17.411-10-18z" fill="#eb9f3c"/><path d="m203 346 1 1-1-1z" fill="#b25637"/><path d="m209 346 1 7h1l-2-7m2 0 4 5-4-5m9.667 0.333 0.666 0.334-0.666-0.334m3.333 0.667v1h15c-3.601-2.762-10.728-2.178-15-1m15-1v1h3v1l-3 1v1h5l-1-3 7 1v4h1v-5l-12-1m146 1v1c7.241 0 18.424-2.323 24 3v-3h5l-2 3 3 1-1-3 2-2h-31z" fill="#55639b"/><path d="m421.33 346.67 0.334 0.666-0.334-0.666z" fill="#b25637"/><path d="m416 363c8.394 1.398 10.25-10.589 12-17-8.624 0.287-10.049 9.854-12 17z" fill="#eb9f3c"/><path d="m511 346-1 2h2l-1-2m-410 1 1 1-1-1m103 0 1 1-1-1m12.667 0.333 0.666 0.334-0.666-0.334m2.333-0.333 1 1-1-1m151 0v24h1l-1-24m5.333 0.667 0.334 0.666-0.334-0.666m5.334-0.334 0.666 0.334-0.666-0.334m50.333 3.667h9l-4-2v-1h3c-3.62-1.401-5.96-0.14-8 3m9-4v1h64l-20-1h-44m64 3h4l1-3-5 3z" fill="#55639b"/><path d="m516 347 1 1-1-1z" fill="#b25637"/><path d="m527 347 1 1-1-1m-429 1 1 1-1-1z" fill="#55639b"/><path d="m102 348 1 1-1-1z" fill="#eb9f3c"/><path d="m110.33 348.67 0.334 0.666-0.334-0.666z" fill="#e8eef4"/><path d="m111 348 1 1-1-1z" fill="#55639b"/><path d="m204 348 1 1-1-1z" fill="#b25637"/><path d="m215 348 8 2v-1l-8-1z" fill="#55639b"/><path d="m409 348v3l5-3h-5z" fill="#26225a"/><path d="m427 348 1 1-1-1z" fill="#b25637"/><path d="m523 348 1 1-1-1z" fill="#55639b"/><path d="m98 349 1 1-1-1z" fill="#eb9f3c"/><path d="m102 349 1 1-1-1m21 1c2.194 2.504 4.28 1.411 7 0h-7m8-1 1 1-1-1m2 0 1 1-1-1m2 0 1 1-1-1m58 0 2 3-2-3z" fill="#55639b"/><path d="m198.33 349.67 0.334 0.666-0.334-0.666z" fill="#b25637"/><path d="m225 349 1 1-1-1m2 0 1 1-1-1m2 0 1 1-1-1m2 0 1 1-1-1m2 0 1 1-1-1m2 0 1 1-1-1m2 0 1 1-1-1z" fill="#55639b"/><path d="m244.67 349.33 0.666 0.334-0.666-0.334m3.333-0.333 1 1-1-1m172 0 1 1-1-1m85 0 1 1-1-1z" fill="#b25637"/><path d="m510 349 1 1-1-1m16 0 1 1-1-1z" fill="#55639b"/><path d="m111.33 350.67 0.334 0.666-0.334-0.666z" fill="#e8eef4"/><path d="m118 350 2 2-2-2z" fill="#26225a"/><path d="m205.33 350.67 0.334 0.666-0.334-0.666m45.667 12.333c0-3.003 1.072-8.853-1.603-10.972-5.154-4.082-21.932-0.966-28.397-1.032-2.324-0.024-6.335-1.017-8.382 0.353-8.993 6.016 8.176 11.893 11.382 12.241 3.675 0.399 7.306 0.411 11 0.41 5.382-2e-3 10.68-0.131 16-1z" fill="#b25637"/><path d="m327 371c-3.249-4.609-14.932-19.726-20.95-19.812-3.822-0.054-8.599 6.386-11.05 8.816-2.63 2.607-8.365 6.774-7.963 10.996 0.457 4.797 14.979 19.741 19.948 18.694 6.894-1.453 15.155-13.807 20.015-18.694m48-21 1 1-1-1z" fill="#55639b"/><path d="m426.33 350.67 0.334 0.666-0.334-0.666z" fill="#b25637"/><path d="m432 350v1h5l-5-1z" fill="#26225a"/><path d="m509 350-1 2h2l-1-2z" fill="#55639b"/><path d="m515 350 1 1-1-1z" fill="#b25637"/><path d="m526 350 1 1-1-1z" fill="#eb9f3c"/><path d="m99 351 1 1-1-1z" fill="#55639b"/><path d="m103 351 1 1-1-1z" fill="#eb9f3c"/><path d="m112 351 1 1-1-1z" fill="#55639b"/><path d="m198 363c-0.382-3.831-1.152-9.48-5.144-11.258-4.382-1.951-11.154-0.742-15.856-0.742h-34c-4.301 0-11.859-1.414-15.562 1.179-3.618 2.533-1.439 7.93 1.695 9.807 5.556 3.326 15.626 2.014 21.867 2.014h19c9.295 0 18.832 0.702 28-1m217-11c-5.146-1.521-10.661-1-16-1h-12c-5.11 0-20.535 2.385-11.258 11.131 4.646 4.38 29.708 3.568 34.748-0.144 2.754-2.029 3.507-6.905 4.51-9.987z" fill="#b25637"/><path d="m419 351 1 1-1-1z" fill="#55639b"/><path d="m427 363c18.703 2.364 38.148 1 57 1 11.074 0 20.738-0.972 26-12-17.23-4.102-38.302-1-56-1-6.057 0-16.166-1.943-21.725 0.603-3.796 1.739-4.52 7.786-5.275 11.397z" fill="#b25637"/><path d="m521 351 1 1-1-1m-422 1 1 1-1-1z" fill="#eb9f3c"/><path d="m103 352 1 1-1-1z" fill="#55639b"/><path d="m199 352 1 1-1-1z" fill="#b25637"/><path d="m260 352v8h1l-1-8z" fill="#eb9f3c"/><path d="m374 352 1 1-1-1z" fill="#55639b"/><path d="m419 352 1 1-1-1m95.333 0.667 0.334 0.666-0.334-0.666z" fill="#b25637"/><path d="m525 352 1 1-1-1m-424.67 1.667 0.334 0.666-0.334-0.666z" fill="#55639b"/><path d="m112 353 1 1-1-1z" fill="#e8eef4"/><path d="m113 353 1 1-1-1m10 0v4l-3-1v1l4 4h1l-2-8z" fill="#55639b"/><path d="m206.33 353.67 0.334 0.666-0.334-0.666z" fill="#b25637"/><path d="m361 353c-2.632 11.054-0.414 24.811 1 36h1l-2-36m53.333 0.667 0.334 0.666-0.334-0.666z" fill="#55639b"/><path d="m425.33 353.67 0.334 0.666-0.334-0.666z" fill="#b25637"/><path d="m509 353 1 1-1-1z" fill="#55639b"/><path d="m525 353 1 1-1-1m-421 1 1 1-1-1z" fill="#eb9f3c"/><path d="m119.33 354.67 0.334 0.666-0.334-0.666z" fill="#55639b"/><path d="m418.33 354.67 0.334 0.666-0.334-0.666z" fill="#b25637"/><path d="m429 354 1 1-1-1z" fill="#55639b"/><path d="m513 354 1 1-1-1z" fill="#b25637"/><path d="m104 355 1 1-1-1z" fill="#55639b"/><path d="m113 355 1 1-1-1z" fill="#e8eef4"/><path d="m114 355 1 1-1-1z" fill="#55639b"/><path d="m200 355 1 1-1-1z" fill="#b25637"/><path d="m211 355 1 1-1-1m40 0v5h1l-1-5m257 0 1 1-1-1m16 0 1 1-1-1m-423 1 1 1-1-1z" fill="#55639b"/><path d="m105 356 1 1-1-1z" fill="#eb9f3c"/><path d="m196 356 1 1-1-1z" fill="#55639b"/><path d="m207 356 1 1-1-1z" fill="#b25637"/><path d="m413 356 1 1-1-1z" fill="#55639b"/><path d="m424 356 1 1-1-1z" fill="#b25637"/><path d="m507 356 1 1-1-1z" fill="#55639b"/><path d="m512 356 1 1-1-1z" fill="#b25637"/><path d="m520 356 1 1-1-1z" fill="#55639b"/><path d="m101 357 1 1-1-1z" fill="#eb9f3c"/><path d="m105 357 1 1-1-1z" fill="#55639b"/><path d="m115 357 1 1-1-1z" fill="#b25637"/><path d="m125 357 1 1-1-1z" fill="#55639b"/><path d="m201 357 1 1-1-1m216.33 0.667 0.334 0.666-0.334-0.666z" fill="#b25637"/><path d="m523.33 357.67 0.334 0.666-0.334-0.666m-407.33 0.333 1 1-1-1m81 0 1 1-1-1m4 0 1 1-1-1m7 0 1 1-1-1m4 0 1 1-1-1z" fill="#55639b"/><path d="m511 358 1 1-1-1z" fill="#b25637"/><path d="m102 359 1 1-1-1z" fill="#55639b"/><path d="m106 359 1 1-1-1z" fill="#eb9f3c"/><path d="m208 359 1 1-1-1z" fill="#b25637"/><path d="m412 359 1 1-1-1z" fill="#55639b"/><path d="m423 359 1 1-1-1m87 0 1 1-1-1z" fill="#b25637"/><path d="m518 359 1 1-1-1z" fill="#eb9f3c"/><path d="m106 360 1 1-1-1z" fill="#55639b"/><path d="m202.33 360.67 0.334 0.666-0.334-0.666z" fill="#b25637"/><path d="m213.33 360.67 0.334 0.666-0.334-0.666m46.667-0.667v16h1l-1-16z" fill="#55639b"/><path d="m416 360 1 1-1-1z" fill="#b25637"/><path d="m427 360 1 1-1-1m76 0 1 1-1-1z" fill="#55639b"/><path d="m509 360 1 1-1-1z" fill="#b25637"/><path d="m522 360 1 1-1-1m-419 1 1 1-1-1z" fill="#55639b"/><path d="m107 361 1 1-1-1z" fill="#eb9f3c"/><path d="m118 361 1 1-1-1z" fill="#b25637"/><path d="m126.67 361.33 0.666 0.334-0.666-0.334m71.333-0.333-3 2v1c2.348-0.294 3.951-0.493 3-3z" fill="#55639b"/><path d="m209 361-1 3 1-3z" fill="#b25637"/><path d="m374.33 361.67 0.334 0.666-0.334-0.666z" fill="#55639b"/><path d="m422.33 361.67 0.334 0.666-0.334-0.666m85.667-0.667 1 1-1-1z" fill="#b25637"/><path d="m522 361 1 1-1-1m-419 1 1 1-1-1z" fill="#eb9f3c"/><path d="m119 362 1 1-1-1z" fill="#b25637"/><path d="m128 362 1 1-1-1z" fill="#55639b"/><path d="m203 362 3 2v-1l-3-1z" fill="#b25637"/><path d="m411 362 1 1-1-1m4.333 0.667 0.334 0.666-0.334-0.666m10.667-0.667 1 1-1-1m73.667 0.333 0.666 0.334-0.666-0.334z" fill="#55639b"/><path d="m507 362 1 1-1-1z" fill="#b25637"/><path d="m517 362 1 1-1-1m4 0 1 1-1-1m-417 1 1 1-1-1m4 0 1 1-1-1z" fill="#55639b"/><path d="m120 363 1 1-1-1z" fill="#b25637"/><path d="m131 363v1h4l-4-1m5 0v1h3l-3-1m78.667 0.333 0.666 0.334-0.666-0.334m3.333-0.333v1h6l-6-1m26.667 0.333 0.666 0.334-0.666-0.334m3.333-0.333v1h3l-3-1m127 0v1h3l-3-1m5.667 0.333 0.666 0.334-0.666-0.334m24.333-0.333v1h6l-6-1z" fill="#55639b"/><path d="m416.67 363.33 0.666 0.334-0.666-0.334m4.333-0.333 1 1-1-1z" fill="#b25637"/><path d="m427 363v1h4l-4-1m68.667 0.333 0.666 0.334-0.666-0.334z" fill="#55639b"/><path d="m506 363 1 1-1-1z" fill="#b25637"/><path d="m109 364 1 1-1-1z" fill="#55639b"/><path d="m122 364 1 1-1-1m383 0 1 1-1-1z" fill="#b25637"/><path d="m520 364 1 1-1-1m-415 1 1 1-1-1z" fill="#55639b"/><path d="m123 365 1 1-1-1z" fill="#b25637"/><path d="m124 365 1 1-1-1z" fill="#55639b"/><path d="m503 365 1 1-1-1z" fill="#b25637"/><path d="m106 366 1 1-1-1z" fill="#55639b"/><path d="m125 366v1h3l-3-1m375 0 1 1-1-1z" fill="#b25637"/><path d="m113 367 2 2-2-2z" fill="#e8eef4"/><path d="m129 367v1h121c-9.789-4.108-26.366-1-37-1h-84z" fill="#b25637"/><path d="m250 367 1 1-1-1m14 0v7l4-3v-1l-4-3m110 0 1 1-1-1z" fill="#55639b"/><path d="m375 367v1h123c-9.789-4.108-26.366-1-37-1h-86z" fill="#b25637"/><path d="m518 367 1 1-1-1z" fill="#eb9f3c"/><path d="m113 368 1 1-1-1z" fill="#55639b"/><path d="m251 368c-4.243 6.544-25.623 3-33 3h-99v1c33.185 4.194 68.537 1 102 1 5.366 0 32.193 3.001 30-5z" fill="#b25637"/><path d="m517 368 1 1-1-1m-403 1 1 1-1-1z" fill="#55639b"/><path d="m116 369 1 1-1-1z" fill="#e8eef4"/><path d="m510 369 1 1-1-1m6 0 1 1-1-1m-406 1 1 1-1-1z" fill="#55639b"/><path d="m116 370 1 1-1-1z" fill="#b25637"/><path d="m508 370 1 1-1-1m7 0 1 1-1-1m-404 1 1 1-1-1m7 0 1 1-1-1m133 0 1 1-1-1z" fill="#55639b"/><path d="m370 371v3h1l-1-3z" fill="#eb9f3c"/><path d="m506 371 1 1-1-1z" fill="#55639b"/><path d="m514 371 1 1-1-1m-402 1 1 1-1-1z" fill="#eb9f3c"/><path d="m121.67 372.33 0.666 0.334-0.666-0.334m252.33-0.333 1 1-1-1m129 0 1 1-1-1m9 0 1 1-1-1m-398 1 1 1-1-1m13 0 1 1-1-1m2 0v1h31l-31-1m40 0v1h3l-3-1m73 0 1 1-1-1m6.667 0.333 0.666 0.334-0.666-0.334m126.33-0.333 1 1-1-1m73 0v1h3l-3-1m4.667 0.333 0.666 0.334-0.666-0.334m3.333-0.333 1 1-1-1m2.667 0.333 0.666 0.334-0.666-0.334m4.333-0.333v1h25l-25-1m47 0 1 1-1-1z" fill="#55639b"/><path d="m511 373 1 1-1-1z" fill="#eb9f3c"/><path d="m116 374 1 1-1-1m392 0 1 1-1-1z" fill="#55639b"/><path d="m509 374 1 1-1-1m-391 1 1 1-1-1z" fill="#eb9f3c"/><path d="m119 375 1 1-1-1m387 0 1 1-1-1z" fill="#55639b"/><path d="m121 376 1 1-1-1z" fill="#eb9f3c"/><path d="m122 376v1h3l-3-1m132 0v6h1l-1-6m247.67 0.333 0.666 0.334-0.666-0.334z" fill="#55639b"/><path d="m503 376 1 1-1-1z" fill="#eb9f3c"/><path d="m162 377v8h1l-1-8z" fill="#55639b"/><path d="m166 377 1 1-1-1z" fill="#b25637"/><path d="m227 382v-5h-46c-2.245 0-14.918-1.391-14.079 2.83 0.735 3.697 11.403 2.17 14.079 2.17h46z" fill="#eb9f3c"/><path d="m227 377 1 1-1-1m22.667 0.333 0.666 0.334-0.666-0.334m124.33-0.333 1 1-1-1z" fill="#55639b"/><path d="m375 377v5h1l-1-5z" fill="#eb9f3c"/><path d="m376 377v5h1l-1-5m21 0v5h1l-1-5z" fill="#55639b"/><path d="m398 377v5h61v-5h-61z" fill="#eb9f3c"/><path d="m459 377 1 1-1-1z" fill="#55639b"/><path d="m463 377 1 1-1-1z" fill="#eb9f3c"/><path d="m227 378v4h1l-1-4z" fill="#b25637"/><path d="m231 378 1 1-1-1z" fill="#55639b"/><path d="m232 378v3h13v-3h-13z" fill="#e8eef4"/><path d="m245 378v3h1l-1-3z" fill="#55639b"/><path d="m249.67 378.33 0.666 0.334-0.666-0.334z" fill="#eb9f3c"/><path d="m374.33 378.67 0.334 0.666-0.334-0.666z" fill="#b25637"/><path d="m380 378 1 1-1-1z" fill="#eb9f3c"/><path d="m380 381h14c-2.822-4.354-11.178-4.354-14 0z" fill="#e8eef4"/><path d="m393 378 1 1-1-1z" fill="#eb9f3c"/><path d="m459 378v3h1l-1-3z" fill="#b25637"/><path d="m231 379 1 1-1-1z" fill="#eb9f3c"/><path d="m249.67 379.33 0.666 0.334-0.666-0.334z" fill="#b25637"/><path d="m231 380 1 1-1-1z" fill="#55639b"/><path d="m249.67 380.33 0.666 0.334-0.666-0.334z" fill="#eb9f3c"/><path d="m276.02 381.06c-15.446 2.003-21.454 35.013-2.015 32.947 7.331-0.779 19.586-4.712 21.654-13.006 1.232-4.94-14.707-20.58-19.639-19.941m97.985-1.059 1 1-1-1z" fill="#55639b"/><path d="m166 381 1 1-1-1z" fill="#b25637"/><path d="m232 381v1h13l-13-1m17.667 0.333 0.666 0.334-0.666-0.334m130.33-0.333v1h14l-14-1m79 0 1 1-1-1z" fill="#55639b"/><path d="m254 382 1 1-1-1m5 0v3h1l-1-3z" fill="#eb9f3c"/><path d="m371 383v4h1l-1-4m14 1c-3.573 12.089-3.573 36.911 0 49h1l-1-49m3 0 1 50h1v-35l-2-15m-225 1v1h17l-17-1m36 0v1l34 1c-7.12-5.394-25.175-2-34-2z" fill="#55639b"/><path d="m236 385 1 1-1-1z" fill="#eb9f3c"/><path d="m236 433 5-1-1-47c-5.241 1.74-4 7.3-4 12v36z" fill="#e8eef4"/><path d="m240 385 1 1-1-1m5 0v1h5v4c1.28-3.906-1.549-4.732-5-5m14 0v4h1l-1-4m116 0v1h6l-1 40c3.112-2.719 2-8.11 2-12 0-8.452 4.349-28.627-7-29z" fill="#55639b"/><path d="m385 385v36c0 4.7-1.241 10.26 4 12v-48h-4z" fill="#e8eef4"/><path d="m392 386v1c7.994-1.903 28.317-4.063 35 1 0.633-3.838-5.275-2.999-8-3-8.473-3e-3 -18.932-1.627-27 1m53-1v1h18l-18-1m-264.67 1.667 0.334 0.666-0.334-0.666m3.667-0.667-32 137h11l32-137h-11z" fill="#55639b"/><path d="m198 386 1 1-1-1z" fill="#eb9f3c"/><path d="m167 523h97c-1.187-5.183 1.097-8.056 1.556-13 1.706-18.339 5.721-34.091 24.444-43v-1c-5.522-2.24-5.98-5.407-6-11-10.389 0.669-20.668-0.933-31-0.999-5.768-0.037-13.388 0.156-17.772-4.229-4.697-4.7-3.228-12.718-3.228-18.772v-45c-7.475 0-26.383-3.445-32.436 1.028-2.426 1.793-2.775 6.258-3.434 8.972-2.097 8.63-4.046 17.318-5.92 26-7.109 32.936-20.469 67.446-23.21 101z" fill="#e8eef4"/><path d="m240 386v45h1c0-12.742 3.91-33.299-1-45m4 0v34h1l-1-34z" fill="#eb9f3c"/><path d="m245 386-1 37h1l5-37h-5z" fill="#e8eef4"/><path d="m366 386v8h1l-1-8z" fill="#55639b"/><path d="m375 386 1 1-1-1z" fill="#eb9f3c"/><path d="m375 387 5 37h1v-38l-6 1m18-1v46c0.01 6.433 2.396 13.717-3.214 18.566-4.293 3.712-11.471 3.31-16.786 3.449-10.655 0.278-21.351 1.528-32 1.985-0.062 5.272-0.922 7.94-6 10v1c18.951 7.29 24.221 25.148 25.222 43 0.273 4.862 2.864 7.927 1.778 13h97l-32-137h-34z" fill="#e8eef4"/><path d="m431 386c3.781 46.295 27.219 90.711 31 137h11l-4-11c2.051-8.139-2.779-18.912-4.576-27-4.75-21.389-10.25-42.612-15-64-1.666-7.502-2.324-24.072-8.424-29 1.573-6.91-4.893-5.999-10-6z" fill="#55639b"/><path d="m232.33 387.67 0.334 0.666-0.334-0.666m139 0 0.334 0.666-0.334-0.666m68.667-0.667v3h1l-1-3z" fill="#eb9f3c"/><path d="m197.33 388.67 0.334 0.666-0.334-0.666z" fill="#55639b"/><path d="m375.33 388.67 0.334 0.666-0.334-0.666m51.667-0.667 1 1-1-1m18 0 1 1-1-1m-257.67 1.667 0.334 0.666-0.334-0.666z" fill="#eb9f3c"/><path d="m232 389 1 1-1-1z" fill="#55639b"/><path d="m437 389 1 1-1-1z" fill="#eb9f3c"/><path d="m445.33 389.67 0.334 0.666-0.334-0.666z" fill="#55639b"/><path d="m179 390 1 1-1-1m18 0 1 1-1-1m35 0v47h1c0-13.265 4.11-34.823-1-47z" fill="#eb9f3c"/><path d="m253 390v4h1l-1-4m122 0v4h1l-1-4m-196 1 1 1-1-1z" fill="#55639b"/><path d="m184 391 1 1-1-1z" fill="#eb9f3c"/><path d="m428 391 1 1-1-1z" fill="#55639b"/><path d="m441 391 1 1-1-1m-13 1 1 1-1-1m18 0 1 1-1-1z" fill="#eb9f3c"/><path d="m196.33 393.67 0.334 0.666-0.334-0.666z" fill="#55639b"/><path d="m258.33 393.67 0.334 0.666-0.334-0.666z" fill="#eb9f3c"/><path d="m446.33 393.67 0.334 0.666-0.334-0.666z" fill="#55639b"/><path d="m178 394 1 1-1-1m71.333 0.667 0.334 0.666-0.334-0.666m3.667-0.667 1 1-1-1z" fill="#eb9f3c"/><path d="m372 394v3h1l-1-3z" fill="#55639b"/><path d="m438.33 394.67 0.334 0.666-0.334-0.666z" fill="#eb9f3c"/><path d="m178.33 395.67 0.334 0.666-0.334-0.666m79.667-0.667v3h1l-1-3m171.33 0.667 0.334 0.666-0.334-0.666m-180.33 0.333v4h1l-1-4z" fill="#55639b"/><path d="m442.33 396.67 0.334 0.666-0.334-0.666z" fill="#eb9f3c"/><path d="m195.33 397.67 0.334 0.666-0.334-0.666m171.67-0.667v5h1l-1-5z" fill="#55639b"/><path d="m372.33 397.67 0.334 0.666-0.334-0.666m56.667-0.667 1 1-1-1m10.333 0.667 0.334 0.666-0.334-0.666z" fill="#eb9f3c"/><path d="m447.33 397.67 0.334 0.666-0.334-0.666z" fill="#55639b"/><path d="m177.33 398.67 0.334 0.666-0.334-0.666m199 0 0.334 0.666-0.334-0.666z" fill="#eb9f3c"/><path d="m252 399v3h1l-1-3m178.33 0.667 0.334 0.666-0.334-0.666m-253.33 0.333 1 1-1-1z" fill="#55639b"/><path d="m368 400 1 1-1-1z" fill="#e8eef4"/><path d="m376 400v3h1l-1-3m-181.67 1.667 0.334 0.666-0.334-0.666z" fill="#55639b"/><path d="m430 401 1 1-1-1m13.333 0.667 0.334 0.666-0.334-0.666m4.667-0.667 1 1-1-1m-199.67 1.667 0.334 0.666-0.334-0.666m3.667-0.667 1 1-1-1m5 0 1 1-1-1z" fill="#eb9f3c"/><path d="m448 402 1 1-1-1m25 0v1h15v21c1.594-3.798 3.014-18.107-0.603-20.972-3.105-2.459-10.628-1.028-14.397-1.028z" fill="#55639b"/><path d="m488 402 1 1-1-1m-312 1 1 1-1-1m18 0 1 1-1-1z" fill="#eb9f3c"/><path d="m257.33 403.67 0.334 0.666-0.334-0.666m116 0 0.334 0.666-0.334-0.666z" fill="#55639b"/><path d="m472 403v20h1l-1-20z" fill="#eb9f3c"/><path d="m473 403v21h15v-21h-15z" fill="#26225a"/><path d="m176 404 1 1-1-1z" fill="#55639b"/><path d="m181 404 1 1-1-1z" fill="#eb9f3c"/><path d="m248 404v3h1l-1-3m183 0 1 1-1-1z" fill="#55639b"/><path d="m442 404 1 1-1-1z" fill="#eb9f3c"/><path d="m476.67 404.33 0.666 0.334-0.666-0.334m4.333-0.333v1h5l-5-1m-113 1v4h1l-1-4z" fill="#55639b"/><path d="m373 405 1 1-1-1m4.333 0.667 0.334 0.666-0.334-0.666m53.667-0.667 1 1-1-1m13 0 1 1-1-1m5 0 1 1-1-1m26 0v16h1l-1-16z" fill="#eb9f3c"/><path d="m476 405v16h10v-16h-10z" fill="#e8eef4"/><path d="m183 406 1 1-1-1z" fill="#eb9f3c"/><path d="m193 406 1 1-1-1z" fill="#55639b"/><path d="m369 406 1 1-1-1z" fill="#e8eef4"/><path d="m449.33 406.67 0.334 0.666-0.334-0.666z" fill="#55639b"/><path d="m175 407 1 1-1-1m18 0 1 1-1-1z" fill="#eb9f3c"/><path d="m251 407v3h1l-1-3m126 0v3h1l-1-3z" fill="#55639b"/><path d="m441 407 1 1-1-1z" fill="#eb9f3c"/><path d="m175.33 408.67 0.334 0.666-0.334-0.666z" fill="#55639b"/><path d="m180 408 1 1-1-1m76.333 0.667 0.334 0.666-0.334-0.666z" fill="#eb9f3c"/><path d="m304 408 1 1-1-1z" fill="#55639b"/><path d="m305 408-3 42c16.043-3.32 12.659-11.554 14.424-25 0.492-3.743 2.425-13.238-1.027-15.972-2.448-1.939-7.47-1.028-10.397-1.028z" fill="#e8eef4"/><path d="m316 408c1.871 7.857 2.956 29.103-1.742 35.892-3.121 4.51-9.282 3.843-12.258 8.108h20c-1.664-13.167-4.823-31.018-2-44h-4z" fill="#eb9f3c"/><path d="m317.67 408.33 0.666 0.334-0.666-0.334m2.333-0.333 1 1-1-1z" fill="#55639b"/><path d="m369 408 1 1-1-1z" fill="#e8eef4"/><path d="m432.33 408.67 0.334 0.666-0.334-0.666z" fill="#55639b"/><path d="m304.33 409.67 0.334 0.666-0.334-0.666z" fill="#eb9f3c"/><path d="m319 409 3 43h1l-2-43h-2z" fill="#e8eef4"/><path d="m365 409c0.438 5.547 3.823 12.757-2 16v1l6-1-4-16z" fill="#55639b"/><path d="m477 412h1v-2h1v6h-1v-2h-1l1 3h1v-8l-2 3m5-3 1 1-1-1m-300 1 1 1-1-1z" fill="#eb9f3c"/><path d="m192.33 410.67 0.334 0.666-0.334-0.666z" fill="#55639b"/><path d="m247 410 1 1-1-1z" fill="#eb9f3c"/><path d="m256.33 410.67 0.334 0.666-0.334-0.666m118 0 0.334 0.666-0.334-0.666z" fill="#55639b"/><path d="m445 410 1 1-1-1z" fill="#eb9f3c"/><path d="m450.33 410.67 0.334 0.666-0.334-0.666z" fill="#55639b"/><path d="m478 410v6h1l-1-6m4 0v6h1l-1-6z" fill="#26225a"/><path d="m483 410v6h1l-1-6z" fill="#55639b"/><path d="m174 411 1 1-1-1m5 0v3h1l-1-3z" fill="#eb9f3c"/><path d="m247.33 411.67 0.334 0.666-0.334-0.666m121.67-0.667v3h1l-1-3m-194.67 1.667 0.334 0.666-0.334-0.666z" fill="#55639b"/><path d="m370 412v3h1l-1-3z" fill="#e8eef4"/><path d="m374 412 1 1-1-1z" fill="#eb9f3c"/><path d="m433.33 412.67 0.334 0.666-0.334-0.666z" fill="#55639b"/><path d="m378 413 1 1-1-1z" fill="#eb9f3c"/><path d="m191.33 414.67 0.334 0.666-0.334-0.666m59 0 0.334 0.666-0.334-0.666z" fill="#55639b"/><path d="m255 414 1 1-1-1z" fill="#eb9f3c"/><path d="m378.33 414.67 0.334 0.666-0.334-0.666m73 0 0.334 0.666-0.334-0.666m-196 1 0.334 0.666-0.334-0.666m-82 1 0.334 0.666-0.334-0.666z" fill="#55639b"/><path d="m191 416 1 1-1-1m55 0 1 1-1-1z" fill="#eb9f3c"/><path d="m321 416v7h1l-1-7m54.333 0.667 0.334 0.666-0.334-0.666m59 0 0.334 0.666-0.334-0.666z" fill="#55639b"/><path d="m482 416 1 1-1-1z" fill="#eb9f3c"/><path d="m246.33 417.67 0.334 0.666-0.334-0.666m123.67-0.667v3h1l-1-3z" fill="#55639b"/><path d="m180.33 418.67 0.334 0.666-0.334-0.666z" fill="#eb9f3c"/><path d="m190.33 418.67 0.334 0.666-0.334-0.666z" fill="#55639b"/><path d="m371.33 418.67 0.334 0.666-0.334-0.666z" fill="#e8eef4"/><path d="m375 418 1 1-1-1m4 0 1 1-1-1m55 0 1 1-1-1m18 0 1 1-1-1z" fill="#eb9f3c"/><path d="m249.33 419.67 0.334 0.666-0.334-0.666m53.667-0.667v6h1l-1-6m76.333 0.667 0.334 0.666-0.334-0.666m73 0 0.334 0.666-0.334-0.666z" fill="#55639b"/><path d="m172 420 1 1-1-1m5.333 0.667 0.334 0.666-0.334-0.666m12.667-0.667 1 1-1-1m64 0 1 1-1-1z" fill="#eb9f3c"/><path d="m172 421 1 1-1-1z" fill="#55639b"/><path d="m249 421 1 1-1-1z" fill="#eb9f3c"/><path d="m254 421 1 1-1-1m181 0 1 1-1-1m40 0v1h11l-11-1z" fill="#55639b"/><path d="m245 422-1 3h1v-3z" fill="#eb9f3c"/><path d="m371.33 422.67 0.334 0.666-0.334-0.666m4.667-0.667 1 1-1-1z" fill="#55639b"/><path d="m435 422 1 1-1-1m18 0 1 1-1-1z" fill="#eb9f3c"/><path d="m189 423 1 1-1-1m56.333 0.667 0.334 0.666-0.334-0.666z" fill="#55639b"/><path d="m321 423v3h1l-1-3z" fill="#eb9f3c"/><path d="m372.33 423.67 0.334 0.666-0.334-0.666z" fill="#e8eef4"/><path d="m376 423 1 1-1-1z" fill="#eb9f3c"/><path d="m453.33 423.67 0.334 0.666-0.334-0.666z" fill="#55639b"/><path d="m171 424 1 1-1-1m18.333 0.667 0.334 0.666-0.334-0.666m63.667-0.667 1 1-1-1m192 0 1 1-1-1z" fill="#eb9f3c"/><path d="m171.33 425.67 0.334 0.666-0.334-0.666m73 0 0.334 0.666-0.334-0.666m4 0 0.334 0.666-0.334-0.666m5 0 0.334 0.666-0.334-0.666z" fill="#55639b"/><path d="m303.33 425.67 0.334 0.666-0.334-0.666z" fill="#eb9f3c"/><path d="m436.33 425.67 0.334 0.666-0.334-0.666m-82.333 1.333v1l8-1h-8z" fill="#55639b"/><path d="m449.33 426.67 0.334 0.666-0.334-0.666z" fill="#eb9f3c"/><path d="m188.33 427.67 0.334 0.666-0.334-0.666m66.334-0.334 0.666 0.334-0.666-0.334m116 0 0.666 0.334-0.666-0.334z" fill="#55639b"/><path d="m326 438c12.211 0 25.156-2.4 37-5.361 3.883-0.971 10.076-1.306 11-5.639l-35 7.13-13 3.87z" fill="#e8eef4"/><path d="m377 427 1 1-1-1z" fill="#55639b"/><path d="m436 427 1 1-1-1m18 0 1 1-1-1m-284 1 1 1-1-1m87 0 1 1-1-1z" fill="#eb9f3c"/><path d="m258 428 1 1-1-1m91 0v1h4l-4-1m17.667 0.333 0.666 0.334-0.666-0.334z" fill="#55639b"/><path d="m368 428 1 1-1-1z" fill="#eb9f3c"/><path d="m454 428 1 1-1-1m-283.67 1.667 0.334 0.666-0.334-0.666z" fill="#55639b"/><path d="m175 429 1 1-1-1m13 0 1 1-1-1z" fill="#eb9f3c"/><path d="m261.67 429.33 0.666 0.334-0.666-0.334m82.333-0.333v1h3l-3-1m18.667 0.333 0.666 0.334-0.666-0.334z" fill="#55639b"/><path d="m364 429 1 1-1-1z" fill="#eb9f3c"/><path d="m437.33 429.67 0.334 0.666-0.334-0.666m-190.33 0.333 1 1-1-1z" fill="#55639b"/><path d="m265 430 1 1-1-1z" fill="#eb9f3c"/><path d="m266.67 430.33 0.666 0.334-0.666-0.334m92 0 0.666 0.334-0.666-0.334z" fill="#55639b"/><path d="m377 430-6 3v1c2.912-0.161 6.883-0.293 6-4z" fill="#e8eef4"/><path d="m247 431 1 1-1-1m23 0 1 1-1-1z" fill="#eb9f3c"/><path d="m271.67 431.33 0.666 0.334-0.666-0.334m82 0 0.666 0.334-0.666-0.334z" fill="#55639b"/><path d="m355 431 1 1-1-1z" fill="#eb9f3c"/><path d="m378.33 431.67 0.334 0.666-0.334-0.666z" fill="#55639b"/><path d="m437 431 1 1-1-1m18 0 1 1-1-1z" fill="#eb9f3c"/><path d="m187 432 1 1-1-1m53 0 1 1-1-1m7 0 1 1-1-1z" fill="#55639b"/><path d="m275 432 1 1-1-1z" fill="#eb9f3c"/><path d="m276.67 432.33 0.666 0.334-0.666-0.334m70.333-0.333v1h3l-3-1z" fill="#55639b"/><path d="m350 432 1 1-1-1z" fill="#eb9f3c"/><path d="m455 432 1 1-1-1z" fill="#55639b"/><path d="m169 433 1 1-1-1m18 0 1 1-1-1m49 0 1 1-1-1z" fill="#eb9f3c"/><path d="m237 433 1 1-1-1m11 0v1h3l-3-1z" fill="#55639b"/><path d="m251.67 433.33 0.666 0.334-0.666-0.334m29.333-0.333 1 1-1-1z" fill="#eb9f3c"/><path d="m282 433v1h3l-3-1m59 0v1h3l-3-1m35.667 0.333 0.666 0.334-0.666-0.334m10.333-0.333 1 1-1-1z" fill="#55639b"/><path d="m388 433 1 1-1-1z" fill="#eb9f3c"/><path d="m169 434 1 1-1-1z" fill="#55639b"/><path d="m174 434 1 1-1-1z" fill="#eb9f3c"/><path d="m253 434v1l24 4v-1l-24-4z" fill="#55639b"/><path d="m256.67 434.33 0.666 0.334-0.666-0.334m32 0 0.666 0.334-0.666-0.334z" fill="#eb9f3c"/><path d="m290 434v1h4l-4-1m32 0v6h1l-1-6m10 0v1h4l-4-1z" fill="#55639b"/><path d="m336 434 1 1-1-1z" fill="#eb9f3c"/><path d="m363.67 434.33 0.666 0.334-0.666-0.334z" fill="#55639b"/><path d="m367 434v1h4l-4-1z" fill="#e8eef4"/><path d="m372.67 434.33 0.666 0.334-0.666-0.334m65.333-0.333 1 1-1-1z" fill="#55639b"/><path d="m261 435 1 1-1-1z" fill="#eb9f3c"/><path d="m299 435v3h1l-1-3z" fill="#55639b"/><path d="m326 435 1 1-1-1z" fill="#eb9f3c"/><path d="m362 435v1h5l-5-1z" fill="#e8eef4"/><path d="m368.67 435.33 0.666 0.334-0.666-0.334z" fill="#55639b"/><path d="m438 435 1 1-1-1m18 0 1 1-1-1z" fill="#eb9f3c"/><path d="m186 436 1 1-1-1z" fill="#55639b"/><path d="m266 436 1 1-1-1z" fill="#eb9f3c"/><path d="m302 436v6h1l-1-6z" fill="#55639b"/><path d="m357 436v1h5l-5-1z" fill="#e8eef4"/><path d="m363.67 436.33 0.666 0.334-0.666-0.334m-8.667 5.667v1c9.727-0.201 23.757 0.569 32-5-8.308-4.469-22.953 3.28-32 4m101.33-5.333 0.334 0.666-0.334-0.666z" fill="#55639b"/><path d="m168 437 1 1-1-1m5 0 1 1-1-1m13 0 1 1-1-1z" fill="#eb9f3c"/><path d="m232 437v3h1l-1-3m5 4 34 2v-1l-23-3c-3.278-3.751-8.826-1.943-11 2z" fill="#55639b"/><path d="m271 437v1h6l-6-1z" fill="#eb9f3c"/><path d="m352 437v1h4l-4-1z" fill="#e8eef4"/><path d="m358.67 437.33 0.666 0.334-0.666-0.334m-190.33 1.334 0.334 0.666-0.334-0.666z" fill="#55639b"/><path d="m241 438 1 1-1-1m5 0 1 1-1-1z" fill="#26225a"/><path d="m277 438v1l21 2v-2l-21-1z" fill="#eb9f3c"/><path d="m346 438v1h4l-4-1z" fill="#e8eef4"/><path d="m352 438v1h3l-3-1m87.333 0.667 0.334 0.666-0.334-0.666z" fill="#55639b"/><path d="m174 439 1 1-1-1z" fill="#eb9f3c"/><path d="m238 439 1 1-1-1z" fill="#26225a"/><path d="m278 439v1h6l-6-1m20 0-1 3 1-3m28 0c0.654 3.054 2.007 2.936 5 3v-1l-5-2z" fill="#55639b"/><path d="m340 439 1 1-1-1z" fill="#e8eef4"/><path d="m345 439v1h4l-4-1m-159.67 1.667 0.334 0.666-0.334-0.666m99.667-0.667v1h9l-9-1z" fill="#55639b"/><path d="m322 440v3h1l-1-3z" fill="#eb9f3c"/><path d="m327 440 1 1-1-1z" fill="#e8eef4"/><path d="m334 440v1h8l-8-1m59 0v6h1l-1-6z" fill="#55639b"/><path d="m451 440 1 1-1-1z" fill="#eb9f3c"/><path d="m457.33 440.67 0.334 0.666-0.334-0.666z" fill="#55639b"/><path d="m167 441 1 1-1-1z" fill="#eb9f3c"/><path d="m167.33 442.67 0.334 0.666-0.334-0.666z" fill="#55639b"/><path d="m172 442 1 1-1-1m130.33 0.667 0.334 0.666-0.334-0.666z" fill="#eb9f3c"/><path d="m440.33 442.67 0.334 0.666-0.334-0.666m-256 2 0.334 0.666-0.334-0.666z" fill="#55639b"/><path d="m440 444 1 1-1-1m11 0 1 1-1-1m7 0 1 1-1-1z" fill="#eb9f3c"/><path d="m388 445 1 1-1-1m70 0 1 1-1-1m-291.67 1.667 0.334 0.666-0.334-0.666z" fill="#55639b"/><path d="m184 446 1 1-1-1z" fill="#eb9f3c"/><path d="m232 446 1 1-1-1m209.33 0.667 0.334 0.666-0.334-0.666z" fill="#55639b"/><path d="m172 447 1 1-1-1z" fill="#eb9f3c"/><path d="m378 448v1l10-1h-10m14-1 1 1-1-1m-208.67 1.667 0.334 0.666-0.334-0.666m49.667-0.667 1 1-1-1m7 0v1h5l-5-1z" fill="#55639b"/><path d="m441 448 1 1-1-1m10 0 1 1-1-1m8 0 1 1-1-1z" fill="#eb9f3c"/><path d="m234 449 1 1-1-1m17 0v1h13l-13-1m113 0v1h12l-12-1m27 0 1 1-1-1m68.333 0.667 0.334 0.666-0.334-0.666z" fill="#55639b"/><path d="m165 450 1 1-1-1m18 0 1 1-1-1z" fill="#eb9f3c"/><path d="m235 450 1 1-1-1m33 0v1h4l-4-1m5 0v1h7l-7-1m8 0v1h4l-4-1m5.667 0.333 0.666 0.334-0.666-0.334m36.666 0.334 0.334 0.666-0.334-0.666m3.667-0.667 2 2-2-2m9 0 2 2-2-2m3.667 0.333 0.666 0.334-0.666-0.334m2.333-0.333 1 1-1-1m2 0v1h16l-16-1m46 0 1 1-1-1m-224.67 1.667 0.334 0.666-0.334-0.666m70.667-0.667 1 1-1-1m94 0 1 1-1-1m58 0 1 1-1-1z" fill="#55639b"/><path d="m389 451 1 1-1-1z" fill="#eb9f3c"/><path d="m442 451 1 1-1-1z" fill="#55639b"/><path d="m238 452 1 1-1-1z" fill="#eb9f3c"/><path d="m239 452 1 1-1-1m83 0 1 1-1-1m64 0 1 1-1-1z" fill="#55639b"/><path d="m387 452 1 1-1-1m55 0 1 1-1-1m10.333 0.667 0.334 0.666-0.334-0.666m7.667-0.667 1 1-1-1z" fill="#eb9f3c"/><path d="m182 453 1 1-1-1z" fill="#55639b"/><path d="m244 453v1h3l-3-1z" fill="#eb9f3c"/><path d="m247 453v1h6l-6-1m127 0v1h6l-6-1z" fill="#55639b"/><path d="m380.67 453.33 0.666 0.334-0.666-0.334z" fill="#eb9f3c"/><path d="m460.33 453.67 0.334 0.666-0.334-0.666z" fill="#55639b"/><path d="m164 454 1 1-1-1m18 0 1 1-1-1m78 0v1h4l-4-1z" fill="#eb9f3c"/><path d="m264 454v1h8l-8-1m92 0v1h9l-9-1z" fill="#55639b"/><path d="m365 454v1h3l-3-1z" fill="#eb9f3c"/><path d="m164.33 455.67 0.334 0.666-0.334-0.666z" fill="#55639b"/><path d="m282 455 1 1-1-1z" fill="#eb9f3c"/><path d="m284 455 1 1-1-1m57 0 1 1-1-1z" fill="#55639b"/><path d="m342 455v1h5l-5-1z" fill="#eb9f3c"/><path d="m443.33 455.67 0.334 0.666-0.334-0.666z" fill="#55639b"/><path d="m171 456 1 1-1-1m113 0v8h1l-1-8z" fill="#eb9f3c"/><path d="m288.33 456.67 0.334 0.666-0.334-0.666z" fill="#55639b"/><path d="m289 456v1c14.29 4.224 34.942-4.955 47 5l1-6h-48z" fill="#eb9f3c"/><path d="m337 456v5h1l-1-5m-155.67 1.667 0.334 0.666-0.334-0.666z" fill="#55639b"/><path d="m289 457v5h46c-2.749-4.986-7.895-4-13-4-10.669 0-22.585 1.48-33-1z" fill="#e8eef4"/><path d="m443 457 1 1-1-1m18 0 1 1-1-1m-298 1 1 1-1-1m125 0v3h1l-1-3m168 0 1 1-1-1z" fill="#eb9f3c"/><path d="m461 458 1 1-1-1m-297.67 1.667 0.334 0.666-0.334-0.666m281 0 0.334 0.666-0.334-0.666z" fill="#55639b"/><path d="m170 461 1 1-1-1z" fill="#eb9f3c"/><path d="m180.33 461.67 0.334 0.666-0.334-0.666m107.67-0.667 1 1-1-1m48 0 1 1-1-1z" fill="#55639b"/><path d="m444 461 1 1-1-1m18 0 1 1-1-1z" fill="#eb9f3c"/><path d="m291.67 462.33 0.666 0.334-0.666-0.334z" fill="#55639b"/><path d="m293 462 1 1-1-1m38 0 1 1-1-1z" fill="#eb9f3c"/><path d="m332.67 462.33 0.666 0.334-0.666-0.334m129.67 0.334 0.334 0.666-0.334-0.666z" fill="#55639b"/><path d="m162 463 1 1-1-1m18 0 1 1-1-1z" fill="#eb9f3c"/><path d="m297 463v1h3l-3-1z" fill="#55639b"/><path d="m300 463 1 1-1-1m24.667 0.333 0.666 0.334-0.666-0.334z" fill="#eb9f3c"/><path d="m326 463v1h3l-3-1m-164 1 1 1-1-1z" fill="#55639b"/><path d="m285 464 1 1-1-1z" fill="#eb9f3c"/><path d="m286 464 1 1-1-1m20 0v1h14l-14-1m33 0 1 1-1-1m106 0 1 1-1-1z" fill="#55639b"/><path d="m288 465 1 1-1-1z" fill="#eb9f3c"/><path d="m289.67 465.33 0.666 0.334-0.666-0.334m44.333 1.667 3-1-3 1z" fill="#55639b"/><path d="m445 465 1 1-1-1m13.333 0.667 0.334 0.666-0.334-0.666m4.667-0.667 1 1-1-1m-293.67 1.667 0.334 0.666-0.334-0.666z" fill="#eb9f3c"/><path d="m179 466 1 1-1-1z" fill="#55639b"/><path d="m290 466 1 1-1-1z" fill="#eb9f3c"/><path d="m463.33 466.67 0.334 0.666-0.334-0.666z" fill="#55639b"/><path d="m161 467 1 1-1-1m18 0 1 1-1-1m109 0 1 1-1-1z" fill="#eb9f3c"/><path d="m297 467 1 1-1-1z" fill="#55639b"/><path d="m298 467 1 1-1-1z" fill="#eb9f3c"/><path d="m269 504h2c6.135-45.526 75.833-45.759 82 0h2c-2.17-49.775-83.891-48.981-86 0z" fill="#e8eef4"/><path d="m300.67 467.33 0.666 0.334-0.666-0.334z" fill="#eb9f3c"/><path d="m302 467v1h6l-6-1m15 0v1h7l-7-1z" fill="#55639b"/><path d="m324 467 1 1-1-1m3 0 1 1-1-1z" fill="#eb9f3c"/><path d="m328 467 1 1-1-1m8 0 1 1-1-1z" fill="#55639b"/><path d="m337 467 1 1-1-1z" fill="#eb9f3c"/><path d="m161.33 468.67 0.334 0.666-0.334-0.666z" fill="#55639b"/><path d="m286 468 1 1-1-1z" fill="#eb9f3c"/><path d="m287 468 1 1-1-1m7 0 1 1-1-1z" fill="#55639b"/><path d="m295 468 1 1-1-1z" fill="#eb9f3c"/><path d="m330 468 1 1-1-1m8 0 1 1-1-1m108 0 1 1-1-1m-161 1 1 1-1-1m7 0 1 1-1-1z" fill="#55639b"/><path d="m293 469 1 1-1-1m11.667 0.333 0.666 0.334-0.666-0.334z" fill="#eb9f3c"/><path d="m306 469v1h3l-3-1m10 0v1h4l-4-1z" fill="#55639b"/><path d="m320 469 1 1-1-1z" fill="#eb9f3c"/><path d="m332 469 1 1-1-1z" fill="#55639b"/><path d="m340 469 1 1-1-1m106 0 1 1-1-1m11 0 1 1-1-1m-288.67 1.667 0.334 0.666-0.334-0.666z" fill="#eb9f3c"/><path d="m178.33 470.67 0.334 0.666-0.334-0.666z" fill="#55639b"/><path d="m283 470 1 1-1-1z" fill="#eb9f3c"/><path d="m284 470 1 1-1-1m6 0 1 1-1-1z" fill="#55639b"/><path d="m291 470 1 1-1-1z" fill="#eb9f3c"/><path d="m301 470 1 1-1-1m22.667 0.333 0.666 0.334-0.666-0.334m10.333-0.333 1 1-1-1m7 0 1 1-1-1m123.33 0.667 0.334 0.666-0.334-0.666m-182.33 0.333 1 1-1-1m6 0 1 1-1-1z" fill="#55639b"/><path d="m289 471 1 1-1-1z" fill="#eb9f3c"/><path d="m298 471 1 1-1-1m28.667 0.333 0.666 0.334-0.666-0.334m9.333-0.333 1 1-1-1z" fill="#55639b"/><path d="m456 471 1 1-1-1z" fill="#eb9f3c"/><path d="m160.33 472.67 0.334 0.666-0.334-0.666z" fill="#55639b"/><path d="m165 472 1 1-1-1z" fill="#eb9f3c"/><path d="m281 472 1 1-1-1m6 0 1 1-1-1z" fill="#55639b"/><path d="m295 472 1 1-1-1z" fill="#eb9f3c"/><path d="m308 472v1h9l-9-1m21 0 1 1-1-1z" fill="#55639b"/><path d="m337 472 1 1-1-1m7 0 1 1-1-1z" fill="#eb9f3c"/><path d="m447.33 472.67 0.334 0.666-0.334-0.666m-167.33 0.333 1 1-1-1m5 0 1 1-1-1m8 0 1 1-1-1m10 0 1 1-1-1z" fill="#55639b"/><path d="m304.67 473.33 0.666 0.334-0.666-0.334z" fill="#eb9f3c"/><path d="m278 523h70c-1.106-4.886 0.968-7.359 1.612-12 0.952-6.86-1.999-16.339-5.72-22-14.582-22.183-50.392-21.182-63.363 2-6.388 11.414-0.951 20.672-2.529 32z" fill="#e8eef4"/><path d="m320 473 1 1-1-1z" fill="#eb9f3c"/><path d="m321.67 473.33 0.666 0.334-0.666-0.334m9.333-0.333 1 1-1-1m8 0 1 1-1-1m6 0 1 1-1-1m-167.67 1.667 0.334 0.666-0.334-0.666m106.67-0.667 1 1-1-1z" fill="#55639b"/><path d="m291 474 1 1-1-1z" fill="#eb9f3c"/><path d="m300 474 1 1-1-1z" fill="#55639b"/><path d="m324 474 1 1-1-1z" fill="#eb9f3c"/><path d="m325 474 1 1-1-1m8 0 1 1-1-1m7 0 1 1-1-1m6 0 1 1-1-1z" fill="#55639b"/><path d="m447 474 1 1-1-1m18 0 1 1-1-1m-188 1 1 1-1-1z" fill="#eb9f3c"/><path d="m283 475 1 1-1-1m7 0 1 1-1-1m7 0 1 1-1-1z" fill="#55639b"/><path d="m327 475 1 1-1-1z" fill="#eb9f3c"/><path d="m335 475 1 1-1-1m6 0 1 1-1-1m6 0 1 1-1-1m118 0 1 1-1-1m-305.67 1.667 0.334 0.666-0.334-0.666z" fill="#55639b"/><path d="m164 476 1 1-1-1m13 0 1 1-1-1m105 0 1 1-1-1z" fill="#eb9f3c"/><path d="m288 476 1 1-1-1m7 0 1 1-1-1z" fill="#55639b"/><path d="m329 476 1 1-1-1z" fill="#eb9f3c"/><path d="m330 476 1 1-1-1m6 0 1 1-1-1z" fill="#55639b"/><path d="m337 476 1 1-1-1m5 0 5 5-5-5z" fill="#eb9f3c"/><path d="m343 476 1 1-1-1m5 0 1 1-1-1m100.33 0.667 0.334 0.666-0.334-0.666z" fill="#55639b"/><path d="m460 476 1 1-1-1m-179 1 1 1-1-1z" fill="#eb9f3c"/><path d="m287 477 1 1-1-1m6 0 1 1-1-1m38 0 1 1-1-1z" fill="#55639b"/><path d="m338 477 1 1-1-1z" fill="#eb9f3c"/><path d="m344 477 1 1-1-1m5 0 1 1-1-1m-172.67 1.667 0.334 0.666-0.334-0.666m98.667-0.667 1 1-1-1m10 0 1 1-1-1z" fill="#55639b"/><path d="m292 478 1 1-1-1z" fill="#eb9f3c"/><path d="m333 478 1 1-1-1m6 0 1 1-1-1m6 0 1 1-1-1m5 0 1 1-1-1z" fill="#55639b"/><path d="m448 478 1 1-1-1m18 0 1 1-1-1z" fill="#eb9f3c"/><path d="m274 479 1 1-1-1m10 0 1 1-1-1m6 0 1 1-1-1z" fill="#55639b"/><path d="m334 479 1 1-1-1z" fill="#eb9f3c"/><path d="m340 479 1 1-1-1m6 0 1 1-1-1z" fill="#55639b"/><path d="m351 479 1 1-1-1m110 0 1 1-1-1z" fill="#eb9f3c"/><path d="m466 479 1 1-1-1z" fill="#55639b"/><path d="m158 480 1 1-1-1m6 0 1 1-1-1m12 0 1 1-1-1m97 0 1 1-1-1m5 0 1 1-1-1z" fill="#eb9f3c"/><path d="m283 480 1 1-1-1z" fill="#55639b"/><path d="m289 480 1 1-1-1z" fill="#eb9f3c"/><path d="m336 480 1 1-1-1m5 0 1 1-1-1m6 0 4 5-4-5m102 0v3h1l-1-3z" fill="#55639b"/><path d="m458 480 1 1-1-1z" fill="#eb9f3c"/><path d="m158 481 1 1-1-1m119 0 1 1-1-1m5 0 1 1-1-1m55 0 1 1-1-1m5 0 1 1-1-1m10 0 1 1-1-1z" fill="#55639b"/><path d="m163 482 1 1-1-1z" fill="#eb9f3c"/><path d="m276 482 1 1-1-1m5 0 1 1-1-1m57 0 1 1-1-1m5 0 1 1-1-1m10 0 1 1-1-1z" fill="#55639b"/><path d="m467 482 1 1-1-1z" fill="#eb9f3c"/><path d="m175 483 1 1-1-1m96 0 1 1-1-1m4 0 1 1-1-1m5 0-5 10h1l4-10m59 0 1 1-1-1m5 0 1 1-1-1z" fill="#55639b"/><path d="m348 483 1 1-1-1z" fill="#eb9f3c"/><path d="m467.33 483.67 0.334 0.666-0.334-0.666z" fill="#55639b"/><path d="m157 484 1 1-1-1m18 0 1 1-1-1m104 0 1 1-1-1z" fill="#eb9f3c"/><path d="m340 484 1 1-1-1z" fill="#55639b"/><path d="m345 484 1 1-1-1m4 0 1 1-1-1z" fill="#eb9f3c"/><path d="m354 484 1 1-1-1m-196.67 1.667 0.334 0.666-0.334-0.666m112.67-0.667 1 1-1-1m4 0 1 1-1-1z" fill="#55639b"/><path d="m278 485 1 1-1-1m6 0 1 1-1-1z" fill="#eb9f3c"/><path d="m341 485 1 1-1-1z" fill="#55639b"/><path d="m350 485 5 19h1c-0.139-6.72-1.646-13.725-6-19m5 0 1 1-1-1z" fill="#eb9f3c"/><path d="m450.33 485.67 0.334 0.666-0.334-0.666z" fill="#55639b"/><path d="m164 486 1 1-1-1m105 0 1 1-1-1z" fill="#eb9f3c"/><path d="m283 486 1 1-1-1m59 0 1 1-1-1m4 0 1 1-1-1m5 0 1 1-1-1m4 0 1 1-1-1z" fill="#55639b"/><path d="m468.33 486.67 0.334 0.666-0.334-0.666z" fill="#eb9f3c"/><path d="m174 487 1 1-1-1m95 0 1 1-1-1z" fill="#55639b"/><path d="m273 487 1 1-1-1z" fill="#eb9f3c"/><path d="m282 487 1 1-1-1z" fill="#55639b"/><path d="m347 487 1 1-1-1z" fill="#eb9f3c"/><path d="m352.33 487.67 0.334 0.666-0.334-0.666z" fill="#55639b"/><path d="m356 487 1 1-1-1m-192 1 1 1-1-1m10.333 0.667 0.334 0.666-0.334-0.666z" fill="#eb9f3c"/><path d="m272 488 1 1-1-1z" fill="#55639b"/><path d="m276 488 1 1-1-1m67 0 1 1-1-1m120 0 1 1-1-1z" fill="#eb9f3c"/><path d="m468 488 1 1-1-1m-311.67 1.667 0.334 0.666-0.334-0.666m111.67-0.667 1 1-1-1z" fill="#55639b"/><path d="m272 489 1 1-1-1m9 0 1 1-1-1z" fill="#eb9f3c"/><path d="m344 489 1 1-1-1m4 0 1 1-1-1m5.333 0.667 0.334 0.666-0.334-0.666z" fill="#55639b"/><path d="m357 489 1 1-1-1z" fill="#eb9f3c"/><path d="m451.33 489.67 0.334 0.666-0.334-0.666z" fill="#55639b"/><path d="m161 490 1 1-1-1z" fill="#eb9f3c"/><path d="m271 490 1 1-1-1z" fill="#55639b"/><path d="m275 490 1 1-1-1z" fill="#eb9f3c"/><path d="m280 490 1 1-1-1m77 0 1 1-1-1m-183.67 1.667 0.334 0.666-0.334-0.666m93.667-0.667 1 1-1-1z" fill="#55639b"/><path d="m271 491 1 1-1-1m3 0-3 13h1l2-13z" fill="#eb9f3c"/><path d="m345 491 1 1-1-1m4 0 1 1-1-1z" fill="#55639b"/><path d="m451 491 1 1-1-1m18 0 1 1-1-1z" fill="#eb9f3c"/><path d="m279 492 1 1-1-1m75.333 0.667 0.334 0.666-0.334-0.666m4 0 0.334 0.666-0.334-0.666z" fill="#55639b"/><path d="m461 492 1 1-1-1z" fill="#eb9f3c"/><path d="m469 492 1 1-1-1z" fill="#55639b"/><path d="m155 493 1 1-1-1m18 0 1 1-1-1z" fill="#eb9f3c"/><path d="m270 493 1 1-1-1m76 0 1 1-1-1z" fill="#55639b"/><path d="m350 493 1 1-1-1m114 0 1 1-1-1z" fill="#eb9f3c"/><path d="m155 494 1 1-1-1m111.33 0.667 0.334 0.666-0.334-0.666m8 0 0.334 0.666-0.334-0.666m3.667-0.667 1 1-1-1m72 0 1 1-1-1m102 0 1 1-1-1z" fill="#55639b"/><path d="m278 495 1 1-1-1z" fill="#eb9f3c"/><path d="m347 495 1 1-1-1m8 0v3h1l-1-3z" fill="#55639b"/><path d="m359 495 1 1-1-1m93 0 1 1-1-1m11 0-1 2 1-2m7 0 1 1-1-1z" fill="#eb9f3c"/><path d="m172.33 496.67 0.334 0.666-0.334-0.666m97 0 0.334 0.666-0.334-0.666z" fill="#55639b"/><path d="m347 496 1 1-1-1m4 0 1 1-1-1z" fill="#eb9f3c"/><path d="m359.33 496.67 0.334 0.666-0.334-0.666m111 0 0.334 0.666-0.334-0.666z" fill="#55639b"/><path d="m154 497 1 1-1-1z" fill="#eb9f3c"/><path d="m273 497v4h1l-1-4m4.333 0.667 0.334 0.666-0.334-0.666m73.667-0.667 1 1-1-1m-197 1 1 1-1-1z" fill="#55639b"/><path d="m265 498 1 1-1-1m4 0 1 1-1-1z" fill="#eb9f3c"/><path d="m356 498v6h1l-1-6m97 0 1 1-1-1m-188 1v3h1l-1-3m83 0 1 1-1-1z" fill="#55639b"/><path d="m453 499 1 1-1-1m18 0 1 1-1-1z" fill="#eb9f3c"/><path d="m171.33 500.67 0.334 0.666-0.334-0.666z" fill="#55639b"/><path d="m348 500 1 1-1-1m4.333 0.667 0.334 0.666-0.334-0.666m7.667-0.667 1 1-1-1m106.33 0.667 0.334 0.666-0.334-0.666z" fill="#eb9f3c"/><path d="m471.33 500.67 0.334 0.666-0.334-0.666z" fill="#55639b"/><path d="m153 501 1 1-1-1m5 0 1 1-1-1z" fill="#eb9f3c"/><path d="m268 501v3h1l-1-3m92 0v6h1l-1-6m-206.67 1.667 0.334 0.666-0.334-0.666m122.67-0.667v4h1l-1-4m76.333 0.667 0.334 0.666-0.334-0.666m102 0 0.334 0.666-0.334-0.666m-182.33 0.333 1 1-1-1z" fill="#55639b"/><path d="m467.33 503.67 0.334 0.666-0.334-0.666m-307.33 0.333 1 1-1-1z" fill="#eb9f3c"/><path d="m170.33 504.67 0.334 0.666-0.334-0.666m98.667-0.667v1h3l-3-1m84 0v1h3l-3-1z" fill="#55639b"/><path d="m472 504 1 1-1-1z" fill="#eb9f3c"/><path d="m472 505 1 1-1-1m-319.67 1.667 0.334 0.666-0.334-0.666z" fill="#55639b"/><path d="m157.33 506.67 0.334 0.666-0.334-0.666m12.667-0.667 1 1-1-1m106 0 1 1-1-1z" fill="#eb9f3c"/><path d="m349 506 1 1-1-1m106.33 0.667 0.334 0.666-0.334-0.666m-190.33 0.333 1 1-1-1m10 0v3h1l-1-3z" fill="#55639b"/><path d="m349 507 1 1-1-1z" fill="#eb9f3c"/><path d="m169.33 508.67 0.334 0.666-0.334-0.666m99.667-0.667v3h1l-1-3z" fill="#55639b"/><path d="m270 508v3l2-3h-2z" fill="#e8eef4"/><path d="m350 508v4h1l-1-4z" fill="#55639b"/><path d="m354 508v3h2v-3h-2z" fill="#e8eef4"/><path d="m359 508v4h1l-1-4z" fill="#55639b"/><path d="m455 508 1 1-1-1m13 0 1 1-1-1m5 0 1 1-1-1z" fill="#eb9f3c"/><path d="m473 509 1 1-1-1z" fill="#55639b"/><path d="m151 510 1 1-1-1m8 0 1 1-1-1m10 0 1 1-1-1m102 0 1 1-1-1m4.333 0.667 0.334 0.666-0.334-0.666z" fill="#eb9f3c"/><path d="m151 511 1 1-1-1m305 0 1 1-1-1z" fill="#55639b"/><path d="m467 511 2 2-2-2m2 0 1 1-1-1m-204 1 1 1-1-1z" fill="#eb9f3c"/><path d="m275 512 1 1-1-1z" fill="#55639b"/><path d="m456 512 1 1-1-1m18 0 1 1-1-1z" fill="#eb9f3c"/><path d="m168 513 1 1-1-1z" fill="#55639b"/><path d="m264 513 1 1-1-1z" fill="#eb9f3c"/><path d="m276 513 1 1-1-1m84 0 1 1-1-1m114.33 0.667 0.334 0.666-0.334-0.666z" fill="#55639b"/><path d="m150 514 1 1-1-1m18 0 1 1-1-1m109 0 1 1-1-1z" fill="#eb9f3c"/><path d="m348 514 1 1-1-1m13 0 1 1-1-1z" fill="#55639b"/><path d="m469.33 514.67 0.334 0.666-0.334-0.666z" fill="#eb9f3c"/><path d="m150.33 515.67 0.334 0.666-0.334-0.666m113 0 0.334 0.666-0.334-0.666m5.97 0.264c-3.816 1.281-1.099 6.562 2.472 5.358 4.119-1.389 1.214-6.597-2.472-5.358z" fill="#55639b"/><path d="m347 515 1 1-1-1z" fill="#eb9f3c"/><path d="m353.32 516.14c-3.636 2.024-0.2 7.215 3.22 4.821 3.098-2.169-0.064-6.578-3.22-4.821m103.68-1.136 1 1-1-1z" fill="#55639b"/><path d="m467 515v3h1l-1-3z" fill="#eb9f3c"/><path d="m347 516 1 1-1-1z" fill="#55639b"/><path d="m362 516 1 1-1-1m95.333 0.667 0.334 0.666-0.334-0.666m17.667-0.667 1 1-1-1z" fill="#eb9f3c"/><path d="m167.33 517.67 0.334 0.666-0.334-0.666z" fill="#55639b"/><path d="m270 517 1 1-1-1z" fill="#26225a"/><path d="m278 517v3h1l-1-3m84 0v4h1l-1-4m113.33 0.667 0.334 0.666-0.334-0.666z" fill="#55639b"/><path d="m273 518 1 1-1-1m84 0 1 1-1-1z" fill="#26225a"/><path d="m149 519 1 1-1-1z" fill="#eb9f3c"/><path d="m268 519 2 2-2-2z" fill="#26225a"/><path d="m458.33 519.67 0.334 0.666-0.334-0.666m-309.33 0.333 1 1-1-1z" fill="#55639b"/><path d="m156.33 520.67 0.334 0.666-0.334-0.666z" fill="#eb9f3c"/><path d="m271 520 1 1-1-1z" fill="#26225a"/><path d="m278 520 1 1-1-1z" fill="#eb9f3c"/><path d="m347.33 520.67 0.334 0.666-0.334-0.666z" fill="#55639b"/><path d="m468 520 1 1-1-1m-314 1 1 1-1-1z" fill="#eb9f3c"/><path d="m166.33 521.67 0.334 0.666-0.334-0.666m96.667-0.667 1 1-1-1z" fill="#55639b"/><path d="m362 521 1 1-1-1m96 0 1 1-1-1m13 0 1 1-1-1m5 0 1 1-1-1z" fill="#eb9f3c"/><path d="m277 522c3.508 4.014 13.94 2 19 2h52v-1c-22.274 0-49.337 4.158-71-1m84 0 1 1-1-1m115 0 1 1-1-1z" fill="#55639b"/><path d="m62 523 1 1-1-1z" fill="#eb9f3c"/><path d="m63 523v1h86l-27-1h-59m104 0v1h97l-30-1h-67m195 0v1h97l-30-1h-67m115 0v1h86l-27-1h-59z" fill="#55639b"/><path d="m563 523 1 1-1-1z" fill="#eb9f3c"/><path d="m61 524 1 1-1-1z" fill="#55639b"/><path d="m564 524 1 1-1-1z" fill="#eb9f3c"/><path d="m564 525 1 1-1-1m-503 2 1 1-1-1m503 0 1 1-1-1z" fill="#55639b"/><path d="m63 529 1 1-1-1z" fill="#eb9f3c"/><path d="m64 529v1h496c-11.456-4.807-31.532-1-44-1h-101-351z" fill="#55639b"/><path d="m560.67 529.33 0.666 0.334-0.666-0.334m-392.67 0.667c10.881 17.093 37.154 11.298 54 13.286 28.219 3.329 57.575 1.714 86 1.714 29.137 0 59.008 1.589 88-1.17 17.886-1.702 50.626 3.904 62-13.83h-290m360.67 2.333 0.666 0.334-0.666-0.334z" fill="#eb9f3c"/></svg>